<?xml version="1.0" encoding="utf-8"?>
<!-- Generator: Adobe Illustrator 16.0.0, SVG Export Plug-In . SVG Version: 6.00 Build 0)  -->
<!DOCTYPE svg PUBLIC "-//W3C//DTD SVG 1.1//EN" "http://www.w3.org/Graphics/SVG/1.1/DTD/svg11.dtd">
<svg version="1.1" id="line" xmlns="http://www.w3.org/2000/svg" xmlns:xlink="http://www.w3.org/1999/xlink" x="0px" y="0px"
	 width="980px" height="580px" viewBox="0 0 980 580" enable-background="new 0 0 980 580" xml:space="preserve">
<path display="none" fill="none" stroke="#CCCCCC" stroke-miterlimit="10" d="M979.334-42.333"/>
<g>
	<line fill="none" stroke="#CCCCCC" stroke-miterlimit="10" x1="0" y1="0.5" x2="980" y2="0.5"/>
	<line fill="none" stroke="#CCCCCC" stroke-miterlimit="10" x1="0" y1="2.5" x2="980" y2="2.5"/>
	<line fill="none" stroke="#CCCCCC" stroke-miterlimit="10" x1="0" y1="4.5" x2="980" y2="4.5"/>
	<line fill="none" stroke="#CCCCCC" stroke-miterlimit="10" x1="0" y1="6.5" x2="980" y2="6.5"/>
	<line fill="none" stroke="#CCCCCC" stroke-miterlimit="10" x1="0" y1="8.5" x2="980" y2="8.5"/>
	<line fill="none" stroke="#CCCCCC" stroke-miterlimit="10" x1="0" y1="10.5" x2="980" y2="10.5"/>
	<line fill="none" stroke="#CCCCCC" stroke-miterlimit="10" x1="0" y1="12.5" x2="980" y2="12.5"/>
	<line fill="none" stroke="#CCCCCC" stroke-miterlimit="10" x1="0" y1="14.5" x2="980" y2="14.5"/>
	<line fill="none" stroke="#CCCCCC" stroke-miterlimit="10" x1="0" y1="16.5" x2="980" y2="16.5"/>
	<line fill="none" stroke="#CCCCCC" stroke-miterlimit="10" x1="0" y1="18.5" x2="980" y2="18.5"/>
	<line fill="none" stroke="#CCCCCC" stroke-miterlimit="10" x1="0" y1="20.5" x2="980" y2="20.5"/>
	<line fill="none" stroke="#CCCCCC" stroke-miterlimit="10" x1="0" y1="22.5" x2="980" y2="22.5"/>
	<line fill="none" stroke="#CCCCCC" stroke-miterlimit="10" x1="0" y1="24.5" x2="980" y2="24.5"/>
	<line fill="none" stroke="#CCCCCC" stroke-miterlimit="10" x1="0" y1="26.5" x2="980" y2="26.5"/>
	<line fill="none" stroke="#CCCCCC" stroke-miterlimit="10" x1="0" y1="28.5" x2="980" y2="28.5"/>
	<line fill="none" stroke="#CCCCCC" stroke-miterlimit="10" x1="0" y1="30.5" x2="980" y2="30.5"/>
	<line fill="none" stroke="#CCCCCC" stroke-miterlimit="10" x1="0" y1="32.5" x2="980" y2="32.5"/>
	<line fill="none" stroke="#CCCCCC" stroke-miterlimit="10" x1="0" y1="34.5" x2="980" y2="34.5"/>
	<line fill="none" stroke="#CCCCCC" stroke-miterlimit="10" x1="0" y1="36.5" x2="980" y2="36.5"/>
	<line fill="none" stroke="#CCCCCC" stroke-miterlimit="10" x1="0" y1="38.5" x2="980" y2="38.5"/>
	<line fill="none" stroke="#CCCCCC" stroke-miterlimit="10" x1="0" y1="40.5" x2="980" y2="40.5"/>
	<line fill="none" stroke="#CCCCCC" stroke-miterlimit="10" x1="0" y1="42.5" x2="980" y2="42.5"/>
	<line fill="none" stroke="#CCCCCC" stroke-miterlimit="10" x1="0" y1="44.5" x2="980" y2="44.5"/>
	<line fill="none" stroke="#CCCCCC" stroke-miterlimit="10" x1="0" y1="46.5" x2="980" y2="46.5"/>
	<line fill="none" stroke="#CCCCCC" stroke-miterlimit="10" x1="0" y1="48.5" x2="980" y2="48.5"/>
	<line fill="none" stroke="#CCCCCC" stroke-miterlimit="10" x1="0" y1="50.5" x2="980" y2="50.5"/>
	<line fill="none" stroke="#CCCCCC" stroke-miterlimit="10" x1="0" y1="52.5" x2="980" y2="52.5"/>
	<line fill="none" stroke="#CCCCCC" stroke-miterlimit="10" x1="0" y1="54.5" x2="980" y2="54.5"/>
	<line fill="none" stroke="#CCCCCC" stroke-miterlimit="10" x1="0" y1="56.5" x2="980" y2="56.5"/>
	<line fill="none" stroke="#CCCCCC" stroke-miterlimit="10" x1="0" y1="58.5" x2="980" y2="58.5"/>
	<line fill="none" stroke="#CCCCCC" stroke-miterlimit="10" x1="0" y1="60.5" x2="980" y2="60.5"/>
	<line fill="none" stroke="#CCCCCC" stroke-miterlimit="10" x1="0" y1="62.5" x2="980" y2="62.5"/>
	<line fill="none" stroke="#CCCCCC" stroke-miterlimit="10" x1="0" y1="64.5" x2="980" y2="64.5"/>
	<line fill="none" stroke="#CCCCCC" stroke-miterlimit="10" x1="0" y1="66.5" x2="980" y2="66.5"/>
	<line fill="none" stroke="#CCCCCC" stroke-miterlimit="10" x1="0" y1="68.5" x2="980" y2="68.5"/>
	<line fill="none" stroke="#CCCCCC" stroke-miterlimit="10" x1="0" y1="70.5" x2="980" y2="70.5"/>
	<line fill="none" stroke="#CCCCCC" stroke-miterlimit="10" x1="0" y1="72.5" x2="980" y2="72.5"/>
	<line fill="none" stroke="#CCCCCC" stroke-miterlimit="10" x1="0" y1="74.5" x2="980" y2="74.5"/>
	<line fill="none" stroke="#CCCCCC" stroke-miterlimit="10" x1="0" y1="76.5" x2="980" y2="76.5"/>
	<line fill="none" stroke="#CCCCCC" stroke-miterlimit="10" x1="0" y1="78.5" x2="980" y2="78.5"/>
	<line fill="none" stroke="#CCCCCC" stroke-miterlimit="10" x1="0" y1="80.5" x2="980" y2="80.5"/>
	<line fill="none" stroke="#CCCCCC" stroke-miterlimit="10" x1="0" y1="82.5" x2="980" y2="82.5"/>
	<line fill="none" stroke="#CCCCCC" stroke-miterlimit="10" x1="0" y1="84.5" x2="980" y2="84.5"/>
	<line fill="none" stroke="#CCCCCC" stroke-miterlimit="10" x1="0" y1="86.5" x2="980" y2="86.5"/>
	<line fill="none" stroke="#CCCCCC" stroke-miterlimit="10" x1="0" y1="88.5" x2="980" y2="88.5"/>
	<line fill="none" stroke="#CCCCCC" stroke-miterlimit="10" x1="0" y1="90.5" x2="980" y2="90.5"/>
	<line fill="none" stroke="#CCCCCC" stroke-miterlimit="10" x1="0" y1="92.5" x2="980" y2="92.5"/>
	<line fill="none" stroke="#CCCCCC" stroke-miterlimit="10" x1="0" y1="94.5" x2="980" y2="94.5"/>
	<line fill="none" stroke="#CCCCCC" stroke-miterlimit="10" x1="0" y1="96.5" x2="980" y2="96.5"/>
	<line fill="none" stroke="#CCCCCC" stroke-miterlimit="10" x1="0" y1="98.5" x2="980" y2="98.5"/>
	<line fill="none" stroke="#CCCCCC" stroke-miterlimit="10" x1="0" y1="100.5" x2="980" y2="100.5"/>
	<line fill="none" stroke="#CCCCCC" stroke-miterlimit="10" x1="0" y1="102.5" x2="980" y2="102.5"/>
	<line fill="none" stroke="#CCCCCC" stroke-miterlimit="10" x1="0" y1="104.5" x2="980" y2="104.5"/>
	<line fill="none" stroke="#CCCCCC" stroke-miterlimit="10" x1="0" y1="106.5" x2="980" y2="106.5"/>
	<line fill="none" stroke="#CCCCCC" stroke-miterlimit="10" x1="0" y1="108.5" x2="980" y2="108.5"/>
	<line fill="none" stroke="#CCCCCC" stroke-miterlimit="10" x1="0" y1="110.5" x2="980" y2="110.5"/>
	<line fill="none" stroke="#CCCCCC" stroke-miterlimit="10" x1="0" y1="112.5" x2="980" y2="112.5"/>
	<line fill="none" stroke="#CCCCCC" stroke-miterlimit="10" x1="0" y1="114.5" x2="980" y2="114.5"/>
	<line fill="none" stroke="#CCCCCC" stroke-miterlimit="10" x1="0" y1="116.5" x2="980" y2="116.5"/>
	<line fill="none" stroke="#CCCCCC" stroke-miterlimit="10" x1="0" y1="118.5" x2="980" y2="118.5"/>
	<line fill="none" stroke="#CCCCCC" stroke-miterlimit="10" x1="0" y1="120.5" x2="980" y2="120.5"/>
	<line fill="none" stroke="#CCCCCC" stroke-miterlimit="10" x1="0" y1="122.5" x2="980" y2="122.5"/>
	<line fill="none" stroke="#CCCCCC" stroke-miterlimit="10" x1="0" y1="124.5" x2="980" y2="124.5"/>
	<line fill="none" stroke="#CCCCCC" stroke-miterlimit="10" x1="0" y1="126.5" x2="980" y2="126.5"/>
	<line fill="none" stroke="#CCCCCC" stroke-miterlimit="10" x1="0" y1="128.5" x2="980" y2="128.5"/>
	<line fill="none" stroke="#CCCCCC" stroke-miterlimit="10" x1="0" y1="130.5" x2="980" y2="130.5"/>
	<line fill="none" stroke="#CCCCCC" stroke-miterlimit="10" x1="0" y1="132.5" x2="980" y2="132.5"/>
	<line fill="none" stroke="#CCCCCC" stroke-miterlimit="10" x1="0" y1="134.5" x2="980" y2="134.5"/>
	<line fill="none" stroke="#CCCCCC" stroke-miterlimit="10" x1="0" y1="136.5" x2="980" y2="136.5"/>
	<line fill="none" stroke="#CCCCCC" stroke-miterlimit="10" x1="0" y1="138.5" x2="980" y2="138.5"/>
	<line fill="none" stroke="#CCCCCC" stroke-miterlimit="10" x1="0" y1="140.5" x2="980" y2="140.5"/>
	<line fill="none" stroke="#CCCCCC" stroke-miterlimit="10" x1="0" y1="142.5" x2="980" y2="142.5"/>
	<line fill="none" stroke="#CCCCCC" stroke-miterlimit="10" x1="0" y1="144.5" x2="980" y2="144.5"/>
	<line fill="none" stroke="#CCCCCC" stroke-miterlimit="10" x1="0" y1="146.5" x2="980" y2="146.5"/>
	<line fill="none" stroke="#CCCCCC" stroke-miterlimit="10" x1="0" y1="148.5" x2="980" y2="148.5"/>
	<line fill="none" stroke="#CCCCCC" stroke-miterlimit="10" x1="0" y1="150.5" x2="980" y2="150.5"/>
	<line fill="none" stroke="#CCCCCC" stroke-miterlimit="10" x1="0" y1="152.5" x2="980" y2="152.5"/>
	<line fill="none" stroke="#CCCCCC" stroke-miterlimit="10" x1="0" y1="154.5" x2="980" y2="154.5"/>
	<line fill="none" stroke="#CCCCCC" stroke-miterlimit="10" x1="0" y1="156.5" x2="980" y2="156.5"/>
	<line fill="none" stroke="#CCCCCC" stroke-miterlimit="10" x1="0" y1="158.5" x2="980" y2="158.5"/>
	<line fill="none" stroke="#CCCCCC" stroke-miterlimit="10" x1="0" y1="160.5" x2="980" y2="160.5"/>
	<line fill="none" stroke="#CCCCCC" stroke-miterlimit="10" x1="0" y1="162.5" x2="980" y2="162.5"/>
	<line fill="none" stroke="#CCCCCC" stroke-miterlimit="10" x1="0" y1="164.5" x2="980" y2="164.5"/>
	<line fill="none" stroke="#CCCCCC" stroke-miterlimit="10" x1="0" y1="166.5" x2="980" y2="166.5"/>
	<line fill="none" stroke="#CCCCCC" stroke-miterlimit="10" x1="0" y1="168.5" x2="980" y2="168.5"/>
	<line fill="none" stroke="#CCCCCC" stroke-miterlimit="10" x1="0" y1="170.5" x2="980" y2="170.5"/>
	<line fill="none" stroke="#CCCCCC" stroke-miterlimit="10" x1="0" y1="172.5" x2="980" y2="172.5"/>
	<line fill="none" stroke="#CCCCCC" stroke-miterlimit="10" x1="0" y1="174.5" x2="980" y2="174.5"/>
	<line fill="none" stroke="#CCCCCC" stroke-miterlimit="10" x1="0" y1="176.5" x2="980" y2="176.5"/>
	<line fill="none" stroke="#CCCCCC" stroke-miterlimit="10" x1="0" y1="178.5" x2="980" y2="178.5"/>
	<line fill="none" stroke="#CCCCCC" stroke-miterlimit="10" x1="0" y1="180.5" x2="980" y2="180.5"/>
	<line fill="none" stroke="#CCCCCC" stroke-miterlimit="10" x1="0" y1="182.5" x2="980" y2="182.5"/>
	<line fill="none" stroke="#CCCCCC" stroke-miterlimit="10" x1="0" y1="184.5" x2="980" y2="184.5"/>
	<line fill="none" stroke="#CCCCCC" stroke-miterlimit="10" x1="0" y1="186.5" x2="980" y2="186.5"/>
	<line fill="none" stroke="#CCCCCC" stroke-miterlimit="10" x1="0" y1="188.5" x2="980" y2="188.5"/>
	<line fill="none" stroke="#CCCCCC" stroke-miterlimit="10" x1="0" y1="190.5" x2="980" y2="190.5"/>
	<line fill="none" stroke="#CCCCCC" stroke-miterlimit="10" x1="0" y1="192.5" x2="980" y2="192.5"/>
	<line fill="none" stroke="#CCCCCC" stroke-miterlimit="10" x1="0" y1="194.5" x2="980" y2="194.5"/>
	<line fill="none" stroke="#CCCCCC" stroke-miterlimit="10" x1="0" y1="196.5" x2="980" y2="196.5"/>
	<line fill="none" stroke="#CCCCCC" stroke-miterlimit="10" x1="0" y1="198.5" x2="980" y2="198.5"/>
	<line fill="none" stroke="#CCCCCC" stroke-miterlimit="10" x1="0" y1="200.5" x2="980" y2="200.5"/>
	<line fill="none" stroke="#CCCCCC" stroke-miterlimit="10" x1="0" y1="202.5" x2="980" y2="202.5"/>
	<line fill="none" stroke="#CCCCCC" stroke-miterlimit="10" x1="0" y1="204.5" x2="980" y2="204.5"/>
	<line fill="none" stroke="#CCCCCC" stroke-miterlimit="10" x1="0" y1="206.5" x2="980" y2="206.5"/>
	<line fill="none" stroke="#CCCCCC" stroke-miterlimit="10" x1="0" y1="208.5" x2="980" y2="208.5"/>
	<line fill="none" stroke="#CCCCCC" stroke-miterlimit="10" x1="0" y1="210.5" x2="980" y2="210.5"/>
	<line fill="none" stroke="#CCCCCC" stroke-miterlimit="10" x1="0" y1="212.5" x2="980" y2="212.5"/>
	<line fill="none" stroke="#CCCCCC" stroke-miterlimit="10" x1="0" y1="214.5" x2="980" y2="214.5"/>
	<line fill="none" stroke="#CCCCCC" stroke-miterlimit="10" x1="0" y1="216.5" x2="980" y2="216.5"/>
	<line fill="none" stroke="#CCCCCC" stroke-miterlimit="10" x1="0" y1="218.5" x2="980" y2="218.5"/>
	<line fill="none" stroke="#CCCCCC" stroke-miterlimit="10" x1="0" y1="220.5" x2="980" y2="220.5"/>
	<line fill="none" stroke="#CCCCCC" stroke-miterlimit="10" x1="0" y1="222.5" x2="980" y2="222.5"/>
	<line fill="none" stroke="#CCCCCC" stroke-miterlimit="10" x1="0" y1="224.5" x2="980" y2="224.5"/>
	<line fill="none" stroke="#CCCCCC" stroke-miterlimit="10" x1="0" y1="226.5" x2="980" y2="226.5"/>
	<line fill="none" stroke="#CCCCCC" stroke-miterlimit="10" x1="0" y1="228.5" x2="980" y2="228.5"/>
	<line fill="none" stroke="#CCCCCC" stroke-miterlimit="10" x1="0" y1="230.5" x2="980" y2="230.5"/>
	<line fill="none" stroke="#CCCCCC" stroke-miterlimit="10" x1="0" y1="232.5" x2="980" y2="232.5"/>
	<line fill="none" stroke="#CCCCCC" stroke-miterlimit="10" x1="0" y1="234.5" x2="980" y2="234.5"/>
	<line fill="none" stroke="#CCCCCC" stroke-miterlimit="10" x1="0" y1="236.5" x2="980" y2="236.5"/>
	<line fill="none" stroke="#CCCCCC" stroke-miterlimit="10" x1="0" y1="238.5" x2="980" y2="238.5"/>
	<line fill="none" stroke="#CCCCCC" stroke-miterlimit="10" x1="0" y1="240.5" x2="980" y2="240.5"/>
	<line fill="none" stroke="#CCCCCC" stroke-miterlimit="10" x1="0" y1="242.5" x2="980" y2="242.5"/>
	<line fill="none" stroke="#CCCCCC" stroke-miterlimit="10" x1="0" y1="244.5" x2="980" y2="244.5"/>
	<line fill="none" stroke="#CCCCCC" stroke-miterlimit="10" x1="0" y1="246.5" x2="980" y2="246.5"/>
	<line fill="none" stroke="#CCCCCC" stroke-miterlimit="10" x1="0" y1="248.5" x2="980" y2="248.5"/>
	<line fill="none" stroke="#CCCCCC" stroke-miterlimit="10" x1="0" y1="250.5" x2="980" y2="250.5"/>
	<line fill="none" stroke="#CCCCCC" stroke-miterlimit="10" x1="0" y1="252.5" x2="980" y2="252.5"/>
	<line fill="none" stroke="#CCCCCC" stroke-miterlimit="10" x1="0" y1="254.5" x2="980" y2="254.5"/>
	<line fill="none" stroke="#CCCCCC" stroke-miterlimit="10" x1="0" y1="256.5" x2="980" y2="256.5"/>
	<line fill="none" stroke="#CCCCCC" stroke-miterlimit="10" x1="0" y1="258.5" x2="980" y2="258.5"/>
	<line fill="none" stroke="#CCCCCC" stroke-miterlimit="10" x1="0" y1="260.5" x2="980" y2="260.5"/>
	<line fill="none" stroke="#CCCCCC" stroke-miterlimit="10" x1="0" y1="262.5" x2="980" y2="262.5"/>
	<line fill="none" stroke="#CCCCCC" stroke-miterlimit="10" x1="0" y1="264.5" x2="980" y2="264.5"/>
	<line fill="none" stroke="#CCCCCC" stroke-miterlimit="10" x1="0" y1="266.5" x2="980" y2="266.5"/>
	<line fill="none" stroke="#CCCCCC" stroke-miterlimit="10" x1="0" y1="268.5" x2="980" y2="268.5"/>
	<line fill="none" stroke="#CCCCCC" stroke-miterlimit="10" x1="0" y1="270.5" x2="980" y2="270.5"/>
	<line fill="none" stroke="#CCCCCC" stroke-miterlimit="10" x1="0" y1="272.5" x2="980" y2="272.5"/>
	<line fill="none" stroke="#CCCCCC" stroke-miterlimit="10" x1="0" y1="274.5" x2="980" y2="274.5"/>
	<line fill="none" stroke="#CCCCCC" stroke-miterlimit="10" x1="0" y1="276.5" x2="980" y2="276.5"/>
	<line fill="none" stroke="#CCCCCC" stroke-miterlimit="10" x1="0" y1="278.5" x2="980" y2="278.5"/>
	<line fill="none" stroke="#CCCCCC" stroke-miterlimit="10" x1="0" y1="280.5" x2="980" y2="280.5"/>
	<line fill="none" stroke="#CCCCCC" stroke-miterlimit="10" x1="0" y1="282.5" x2="980" y2="282.5"/>
	<line fill="none" stroke="#CCCCCC" stroke-miterlimit="10" x1="0" y1="284.5" x2="980" y2="284.5"/>
	<line fill="none" stroke="#CCCCCC" stroke-miterlimit="10" x1="0" y1="286.5" x2="980" y2="286.5"/>
	<line fill="none" stroke="#CCCCCC" stroke-miterlimit="10" x1="0" y1="288.5" x2="980" y2="288.5"/>
	<line fill="none" stroke="#CCCCCC" stroke-miterlimit="10" x1="0" y1="290.5" x2="980" y2="290.5"/>
	<line fill="none" stroke="#CCCCCC" stroke-miterlimit="10" x1="0" y1="292.5" x2="980" y2="292.5"/>
	<line fill="none" stroke="#CCCCCC" stroke-miterlimit="10" x1="0" y1="294.5" x2="980" y2="294.5"/>
	<line fill="none" stroke="#CCCCCC" stroke-miterlimit="10" x1="0" y1="296.5" x2="980" y2="296.5"/>
	<line fill="none" stroke="#CCCCCC" stroke-miterlimit="10" x1="0" y1="298.5" x2="980" y2="298.5"/>
	<line fill="none" stroke="#CCCCCC" stroke-miterlimit="10" x1="0" y1="300.5" x2="980" y2="300.5"/>
	<line fill="none" stroke="#CCCCCC" stroke-miterlimit="10" x1="0" y1="302.5" x2="980" y2="302.5"/>
	<line fill="none" stroke="#CCCCCC" stroke-miterlimit="10" x1="0" y1="304.5" x2="980" y2="304.5"/>
	<line fill="none" stroke="#CCCCCC" stroke-miterlimit="10" x1="0" y1="306.5" x2="980" y2="306.5"/>
	<line fill="none" stroke="#CCCCCC" stroke-miterlimit="10" x1="0" y1="308.5" x2="980" y2="308.5"/>
	<line fill="none" stroke="#CCCCCC" stroke-miterlimit="10" x1="0" y1="310.5" x2="980" y2="310.5"/>
	<line fill="none" stroke="#CCCCCC" stroke-miterlimit="10" x1="0" y1="312.5" x2="980" y2="312.5"/>
	<line fill="none" stroke="#CCCCCC" stroke-miterlimit="10" x1="0" y1="314.5" x2="980" y2="314.5"/>
	<line fill="none" stroke="#CCCCCC" stroke-miterlimit="10" x1="0" y1="316.5" x2="980" y2="316.5"/>
	<line fill="none" stroke="#CCCCCC" stroke-miterlimit="10" x1="0" y1="318.5" x2="980" y2="318.5"/>
	<line fill="none" stroke="#CCCCCC" stroke-miterlimit="10" x1="0" y1="320.5" x2="980" y2="320.5"/>
	<line fill="none" stroke="#CCCCCC" stroke-miterlimit="10" x1="0" y1="322.5" x2="980" y2="322.5"/>
	<line fill="none" stroke="#CCCCCC" stroke-miterlimit="10" x1="0" y1="324.5" x2="980" y2="324.5"/>
	<line fill="none" stroke="#CCCCCC" stroke-miterlimit="10" x1="0" y1="326.5" x2="980" y2="326.5"/>
	<line fill="none" stroke="#CCCCCC" stroke-miterlimit="10" x1="0" y1="328.5" x2="980" y2="328.5"/>
	<line fill="none" stroke="#CCCCCC" stroke-miterlimit="10" x1="0" y1="330.5" x2="980" y2="330.5"/>
	<line fill="none" stroke="#CCCCCC" stroke-miterlimit="10" x1="0" y1="332.5" x2="980" y2="332.5"/>
	<line fill="none" stroke="#CCCCCC" stroke-miterlimit="10" x1="0" y1="334.5" x2="980" y2="334.5"/>
	<line fill="none" stroke="#CCCCCC" stroke-miterlimit="10" x1="0" y1="336.5" x2="980" y2="336.5"/>
	<line fill="none" stroke="#CCCCCC" stroke-miterlimit="10" x1="0" y1="338.5" x2="980" y2="338.5"/>
	<line fill="none" stroke="#CCCCCC" stroke-miterlimit="10" x1="0" y1="340.5" x2="980" y2="340.5"/>
	<line fill="none" stroke="#CCCCCC" stroke-miterlimit="10" x1="0" y1="342.5" x2="980" y2="342.5"/>
	<line fill="none" stroke="#CCCCCC" stroke-miterlimit="10" x1="0" y1="344.5" x2="980" y2="344.5"/>
	<line fill="none" stroke="#CCCCCC" stroke-miterlimit="10" x1="0" y1="346.5" x2="980" y2="346.5"/>
	<line fill="none" stroke="#CCCCCC" stroke-miterlimit="10" x1="0" y1="348.5" x2="980" y2="348.5"/>
	<line fill="none" stroke="#CCCCCC" stroke-miterlimit="10" x1="0" y1="350.5" x2="980" y2="350.5"/>
	<line fill="none" stroke="#CCCCCC" stroke-miterlimit="10" x1="0" y1="352.5" x2="980" y2="352.5"/>
	<line fill="none" stroke="#CCCCCC" stroke-miterlimit="10" x1="0" y1="354.5" x2="980" y2="354.5"/>
	<line fill="none" stroke="#CCCCCC" stroke-miterlimit="10" x1="0" y1="356.5" x2="980" y2="356.5"/>
	<line fill="none" stroke="#CCCCCC" stroke-miterlimit="10" x1="0" y1="358.5" x2="980" y2="358.5"/>
	<line fill="none" stroke="#CCCCCC" stroke-miterlimit="10" x1="0" y1="360.5" x2="980" y2="360.5"/>
	<line fill="none" stroke="#CCCCCC" stroke-miterlimit="10" x1="0" y1="362.5" x2="980" y2="362.5"/>
	<line fill="none" stroke="#CCCCCC" stroke-miterlimit="10" x1="0" y1="364.5" x2="980" y2="364.5"/>
	<line fill="none" stroke="#CCCCCC" stroke-miterlimit="10" x1="0" y1="366.5" x2="980" y2="366.5"/>
	<line fill="none" stroke="#CCCCCC" stroke-miterlimit="10" x1="0" y1="368.5" x2="980" y2="368.5"/>
	<line fill="none" stroke="#CCCCCC" stroke-miterlimit="10" x1="0" y1="370.5" x2="980" y2="370.5"/>
	<line fill="none" stroke="#CCCCCC" stroke-miterlimit="10" x1="0" y1="372.5" x2="980" y2="372.5"/>
	<line fill="none" stroke="#CCCCCC" stroke-miterlimit="10" x1="0" y1="374.5" x2="980" y2="374.5"/>
	<line fill="none" stroke="#CCCCCC" stroke-miterlimit="10" x1="0" y1="376.5" x2="980" y2="376.5"/>
	<line fill="none" stroke="#CCCCCC" stroke-miterlimit="10" x1="0" y1="378.5" x2="980" y2="378.5"/>
	<line fill="none" stroke="#CCCCCC" stroke-miterlimit="10" x1="0" y1="380.5" x2="980" y2="380.5"/>
	<line fill="none" stroke="#CCCCCC" stroke-miterlimit="10" x1="0" y1="382.5" x2="980" y2="382.5"/>
	<line fill="none" stroke="#CCCCCC" stroke-miterlimit="10" x1="0" y1="384.5" x2="980" y2="384.5"/>
	<line fill="none" stroke="#CCCCCC" stroke-miterlimit="10" x1="0" y1="386.5" x2="980" y2="386.5"/>
	<line fill="none" stroke="#CCCCCC" stroke-miterlimit="10" x1="0" y1="388.5" x2="980" y2="388.5"/>
	<line fill="none" stroke="#CCCCCC" stroke-miterlimit="10" x1="0" y1="390.5" x2="980" y2="390.5"/>
	<line fill="none" stroke="#CCCCCC" stroke-miterlimit="10" x1="0" y1="392.5" x2="980" y2="392.5"/>
	<line fill="none" stroke="#CCCCCC" stroke-miterlimit="10" x1="0" y1="394.5" x2="980" y2="394.5"/>
	<line fill="none" stroke="#CCCCCC" stroke-miterlimit="10" x1="0" y1="396.5" x2="980" y2="396.5"/>
	<line fill="none" stroke="#CCCCCC" stroke-miterlimit="10" x1="0" y1="398.5" x2="980" y2="398.5"/>
	<line fill="none" stroke="#CCCCCC" stroke-miterlimit="10" x1="0" y1="400.5" x2="980" y2="400.5"/>
	<line fill="none" stroke="#CCCCCC" stroke-miterlimit="10" x1="0" y1="402.5" x2="980" y2="402.5"/>
	<line fill="none" stroke="#CCCCCC" stroke-miterlimit="10" x1="0" y1="404.5" x2="980" y2="404.5"/>
	<line fill="none" stroke="#CCCCCC" stroke-miterlimit="10" x1="0" y1="406.5" x2="980" y2="406.5"/>
	<line fill="none" stroke="#CCCCCC" stroke-miterlimit="10" x1="0" y1="408.5" x2="980" y2="408.5"/>
	<line fill="none" stroke="#CCCCCC" stroke-miterlimit="10" x1="0" y1="410.5" x2="980" y2="410.5"/>
	<line fill="none" stroke="#CCCCCC" stroke-miterlimit="10" x1="0" y1="412.5" x2="980" y2="412.5"/>
	<line fill="none" stroke="#CCCCCC" stroke-miterlimit="10" x1="0" y1="414.5" x2="980" y2="414.5"/>
	<line fill="none" stroke="#CCCCCC" stroke-miterlimit="10" x1="0" y1="416.5" x2="980" y2="416.5"/>
	<line fill="none" stroke="#CCCCCC" stroke-miterlimit="10" x1="0" y1="418.5" x2="980" y2="418.5"/>
	<line fill="none" stroke="#CCCCCC" stroke-miterlimit="10" x1="0" y1="420.5" x2="980" y2="420.5"/>
	<line fill="none" stroke="#CCCCCC" stroke-miterlimit="10" x1="0" y1="422.5" x2="980" y2="422.5"/>
	<line fill="none" stroke="#CCCCCC" stroke-miterlimit="10" x1="0" y1="424.5" x2="980" y2="424.5"/>
	<line fill="none" stroke="#CCCCCC" stroke-miterlimit="10" x1="0" y1="426.5" x2="980" y2="426.5"/>
	<line fill="none" stroke="#CCCCCC" stroke-miterlimit="10" x1="0" y1="428.5" x2="980" y2="428.5"/>
	<line fill="none" stroke="#CCCCCC" stroke-miterlimit="10" x1="0" y1="430.5" x2="980" y2="430.5"/>
	<line fill="none" stroke="#CCCCCC" stroke-miterlimit="10" x1="0" y1="432.5" x2="980" y2="432.5"/>
	<line fill="none" stroke="#CCCCCC" stroke-miterlimit="10" x1="0" y1="434.5" x2="980" y2="434.5"/>
	<line fill="none" stroke="#CCCCCC" stroke-miterlimit="10" x1="0" y1="436.5" x2="980" y2="436.5"/>
	<line fill="none" stroke="#CCCCCC" stroke-miterlimit="10" x1="0" y1="438.5" x2="980" y2="438.5"/>
	<line fill="none" stroke="#CCCCCC" stroke-miterlimit="10" x1="0" y1="440.5" x2="980" y2="440.5"/>
	<line fill="none" stroke="#CCCCCC" stroke-miterlimit="10" x1="0" y1="442.5" x2="980" y2="442.5"/>
	<line fill="none" stroke="#CCCCCC" stroke-miterlimit="10" x1="0" y1="444.5" x2="980" y2="444.5"/>
	<line fill="none" stroke="#CCCCCC" stroke-miterlimit="10" x1="0" y1="446.5" x2="980" y2="446.5"/>
	<line fill="none" stroke="#CCCCCC" stroke-miterlimit="10" x1="0" y1="448.5" x2="980" y2="448.5"/>
	<line fill="none" stroke="#CCCCCC" stroke-miterlimit="10" x1="0" y1="450.5" x2="980" y2="450.5"/>
	<line fill="none" stroke="#CCCCCC" stroke-miterlimit="10" x1="0" y1="452.5" x2="980" y2="452.5"/>
	<line fill="none" stroke="#CCCCCC" stroke-miterlimit="10" x1="0" y1="454.5" x2="980" y2="454.5"/>
	<line fill="none" stroke="#CCCCCC" stroke-miterlimit="10" x1="0" y1="456.5" x2="980" y2="456.5"/>
	<line fill="none" stroke="#CCCCCC" stroke-miterlimit="10" x1="0" y1="458.5" x2="980" y2="458.5"/>
	<line fill="none" stroke="#CCCCCC" stroke-miterlimit="10" x1="0" y1="460.5" x2="980" y2="460.5"/>
	<line fill="none" stroke="#CCCCCC" stroke-miterlimit="10" x1="0" y1="462.5" x2="980" y2="462.5"/>
	<line fill="none" stroke="#CCCCCC" stroke-miterlimit="10" x1="0" y1="464.5" x2="980" y2="464.5"/>
	<line fill="none" stroke="#CCCCCC" stroke-miterlimit="10" x1="0" y1="466.5" x2="980" y2="466.5"/>
	<line fill="none" stroke="#CCCCCC" stroke-miterlimit="10" x1="0" y1="468.5" x2="980" y2="468.5"/>
	<line fill="none" stroke="#CCCCCC" stroke-miterlimit="10" x1="0" y1="470.5" x2="980" y2="470.5"/>
	<line fill="none" stroke="#CCCCCC" stroke-miterlimit="10" x1="0" y1="472.5" x2="980" y2="472.5"/>
	<line fill="none" stroke="#CCCCCC" stroke-miterlimit="10" x1="0" y1="474.5" x2="980" y2="474.5"/>
	<line fill="none" stroke="#CCCCCC" stroke-miterlimit="10" x1="0" y1="476.5" x2="980" y2="476.5"/>
	<line fill="none" stroke="#CCCCCC" stroke-miterlimit="10" x1="0" y1="478.5" x2="980" y2="478.5"/>
	<line fill="none" stroke="#CCCCCC" stroke-miterlimit="10" x1="0" y1="480.5" x2="980" y2="480.5"/>
	<line fill="none" stroke="#CCCCCC" stroke-miterlimit="10" x1="0" y1="482.5" x2="980" y2="482.5"/>
	<line fill="none" stroke="#CCCCCC" stroke-miterlimit="10" x1="0" y1="484.5" x2="980" y2="484.5"/>
	<line fill="none" stroke="#CCCCCC" stroke-miterlimit="10" x1="0" y1="486.5" x2="980" y2="486.5"/>
	<line fill="none" stroke="#CCCCCC" stroke-miterlimit="10" x1="0" y1="488.5" x2="980" y2="488.5"/>
	<line fill="none" stroke="#CCCCCC" stroke-miterlimit="10" x1="0" y1="490.5" x2="980" y2="490.5"/>
	<line fill="none" stroke="#CCCCCC" stroke-miterlimit="10" x1="0" y1="492.5" x2="980" y2="492.5"/>
	<line fill="none" stroke="#CCCCCC" stroke-miterlimit="10" x1="0" y1="494.5" x2="980" y2="494.5"/>
	<line fill="none" stroke="#CCCCCC" stroke-miterlimit="10" x1="0" y1="496.5" x2="980" y2="496.5"/>
	<line fill="none" stroke="#CCCCCC" stroke-miterlimit="10" x1="0" y1="498.5" x2="980" y2="498.5"/>
	<line fill="none" stroke="#CCCCCC" stroke-miterlimit="10" x1="0" y1="500.5" x2="980" y2="500.5"/>
	<line fill="none" stroke="#CCCCCC" stroke-miterlimit="10" x1="0" y1="502.5" x2="980" y2="502.5"/>
	<line fill="none" stroke="#CCCCCC" stroke-miterlimit="10" x1="0" y1="504.5" x2="980" y2="504.5"/>
	<line fill="none" stroke="#CCCCCC" stroke-miterlimit="10" x1="0" y1="506.5" x2="980" y2="506.5"/>
	<line fill="none" stroke="#CCCCCC" stroke-miterlimit="10" x1="0" y1="508.5" x2="980" y2="508.5"/>
	<line fill="none" stroke="#CCCCCC" stroke-miterlimit="10" x1="0" y1="510.5" x2="980" y2="510.5"/>
	<line fill="none" stroke="#CCCCCC" stroke-miterlimit="10" x1="0" y1="512.5" x2="980" y2="512.5"/>
	<line fill="none" stroke="#CCCCCC" stroke-miterlimit="10" x1="0" y1="514.5" x2="980" y2="514.5"/>
	<line fill="none" stroke="#CCCCCC" stroke-miterlimit="10" x1="0" y1="516.5" x2="980" y2="516.5"/>
	<line fill="none" stroke="#CCCCCC" stroke-miterlimit="10" x1="0" y1="518.5" x2="980" y2="518.5"/>
	<line fill="none" stroke="#CCCCCC" stroke-miterlimit="10" x1="0" y1="520.5" x2="980" y2="520.5"/>
	<line fill="none" stroke="#CCCCCC" stroke-miterlimit="10" x1="0" y1="522.5" x2="980" y2="522.5"/>
	<line fill="none" stroke="#CCCCCC" stroke-miterlimit="10" x1="0" y1="524.5" x2="980" y2="524.5"/>
	<line fill="none" stroke="#CCCCCC" stroke-miterlimit="10" x1="0" y1="526.5" x2="980" y2="526.5"/>
	<line fill="none" stroke="#CCCCCC" stroke-miterlimit="10" x1="0" y1="528.5" x2="980" y2="528.5"/>
	<line fill="none" stroke="#CCCCCC" stroke-miterlimit="10" x1="0" y1="530.5" x2="980" y2="530.5"/>
	<line fill="none" stroke="#CCCCCC" stroke-miterlimit="10" x1="0" y1="532.5" x2="980" y2="532.5"/>
	<line fill="none" stroke="#CCCCCC" stroke-miterlimit="10" x1="0" y1="534.5" x2="980" y2="534.5"/>
	<line fill="none" stroke="#CCCCCC" stroke-miterlimit="10" x1="0" y1="536.5" x2="980" y2="536.5"/>
	<line fill="none" stroke="#CCCCCC" stroke-miterlimit="10" x1="0" y1="538.5" x2="980" y2="538.5"/>
	<line fill="none" stroke="#CCCCCC" stroke-miterlimit="10" x1="0" y1="540.5" x2="980" y2="540.5"/>
	<line fill="none" stroke="#CCCCCC" stroke-miterlimit="10" x1="0" y1="542.5" x2="980" y2="542.5"/>
	<line fill="none" stroke="#CCCCCC" stroke-miterlimit="10" x1="0" y1="544.5" x2="980" y2="544.5"/>
	<line fill="none" stroke="#CCCCCC" stroke-miterlimit="10" x1="0" y1="546.5" x2="980" y2="546.5"/>
	<line fill="none" stroke="#CCCCCC" stroke-miterlimit="10" x1="0" y1="548.5" x2="980" y2="548.5"/>
	<line fill="none" stroke="#CCCCCC" stroke-miterlimit="10" x1="0" y1="550.5" x2="980" y2="550.5"/>
	<line fill="none" stroke="#CCCCCC" stroke-miterlimit="10" x1="0" y1="552.5" x2="980" y2="552.5"/>
	<line fill="none" stroke="#CCCCCC" stroke-miterlimit="10" x1="0" y1="554.5" x2="980" y2="554.5"/>
	<line fill="none" stroke="#CCCCCC" stroke-miterlimit="10" x1="0" y1="556.5" x2="980" y2="556.5"/>
	<line fill="none" stroke="#CCCCCC" stroke-miterlimit="10" x1="0" y1="558.5" x2="980" y2="558.5"/>
	<line fill="none" stroke="#CCCCCC" stroke-miterlimit="10" x1="0" y1="560.5" x2="980" y2="560.5"/>
	<line fill="none" stroke="#CCCCCC" stroke-miterlimit="10" x1="0" y1="562.5" x2="980" y2="562.5"/>
</g>
<g>
	<line fill="none" stroke="#CCCCCC" stroke-miterlimit="10" x1="0" y1="564.5" x2="980" y2="564.5"/>
	<line fill="none" stroke="#CCCCCC" stroke-miterlimit="10" x1="0" y1="566.5" x2="980" y2="566.5"/>
	<line fill="none" stroke="#CCCCCC" stroke-miterlimit="10" x1="0" y1="568.5" x2="980" y2="568.5"/>
	<line fill="none" stroke="#CCCCCC" stroke-miterlimit="10" x1="0" y1="570.5" x2="980" y2="570.5"/>
	<line fill="none" stroke="#CCCCCC" stroke-miterlimit="10" x1="0" y1="572.5" x2="980" y2="572.5"/>
	<line fill="none" stroke="#CCCCCC" stroke-miterlimit="10" x1="0" y1="574.5" x2="980" y2="574.5"/>
	<line fill="none" stroke="#CCCCCC" stroke-miterlimit="10" x1="0" y1="576.5" x2="980" y2="576.5"/>
	<line fill="none" stroke="#CCCCCC" stroke-miterlimit="10" x1="0" y1="578.5" x2="980" y2="578.5"/>
</g>
</svg>
