<?xml version="1.0" encoding="utf-8"?>
<!-- Generator: Adobe Illustrator 16.0.0, SVG Export Plug-In . SVG Version: 6.00 Build 0)  -->
<!DOCTYPE svg PUBLIC "-//W3C//DTD SVG 1.1//EN" "http://www.w3.org/Graphics/SVG/1.1/DTD/svg11.dtd">
<svg version="1.1" id="Layer_1" xmlns="http://www.w3.org/2000/svg" xmlns:xlink="http://www.w3.org/1999/xlink" x="0px" y="0px"
	 width="291.574px" height="286.518px" viewBox="0 0 291.574 286.518" enable-background="new 0 0 291.574 286.518"
	 xml:space="preserve">
<g id="indicators_copy">
	<g>
		<path d="M73.442,113.76c-0.287-0.887-0.551-1.461-0.887-1.7c-0.264-0.166-0.742-0.216-0.958-0.216
			c-0.239,0-0.384-0.022-0.384-0.215c0-0.168,0.191-0.217,0.527-0.217c1.246,0,2.563,0.072,2.779,0.072
			c0.215,0,1.27-0.072,2.658-0.072c0.336,0,0.504,0.072,0.504,0.217c0,0.191-0.191,0.215-0.432,0.215c-0.191,0-0.432,0-0.599,0.097
			c-0.216,0.096-0.264,0.264-0.264,0.526c0,0.312,0.239,1.125,0.527,2.203c0.407,1.582,2.636,8.84,3.066,10.183h0.071l4.648-12.504
			c0.239-0.673,0.406-0.863,0.599-0.863c0.263,0,0.384,0.359,0.694,1.127l4.982,12.072h0.072c0.432-1.604,2.348-7.931,3.187-10.732
			c0.167-0.551,0.239-1.053,0.239-1.389c0-0.383-0.215-0.72-1.149-0.72c-0.239,0-0.407-0.071-0.407-0.215
			c0-0.168,0.191-0.217,0.551-0.217c1.27,0,2.275,0.072,2.491,0.072c0.168,0,1.198-0.072,1.989-0.072
			c0.263,0,0.431,0.049,0.431,0.191c0,0.168-0.12,0.239-0.335,0.239c-0.24,0-0.576,0.023-0.839,0.119
			c-0.575,0.218-0.839,1.175-1.342,2.539c-1.103,3.021-3.617,10.638-4.791,14.23c-0.264,0.84-0.384,1.127-0.694,1.127
			c-0.24,0-0.384-0.287-0.743-1.174l-4.983-12.027h-0.047c-0.455,1.223-3.643,9.727-4.672,11.932
			c-0.455,0.982-0.575,1.271-0.863,1.271c-0.238,0-0.334-0.264-0.551-0.887L73.442,113.76z"/>
		<path d="M101.571,118.36c0-3.642,0-4.312-0.049-5.078c-0.047-0.814-0.238-1.197-1.029-1.365c-0.191-0.049-0.6-0.071-0.935-0.071
			c-0.264,0-0.407-0.05-0.407-0.216c0-0.168,0.168-0.217,0.527-0.217c1.27,0,2.779,0.072,3.281,0.072
			c0.814,0,2.636-0.072,3.379-0.072c1.509,0,3.113,0.146,4.407,1.031c0.671,0.455,1.629,1.676,1.629,3.281
			c0,1.772-0.743,3.401-3.162,5.366c2.132,2.683,3.785,4.814,5.198,6.3c1.342,1.391,2.324,1.559,2.684,1.629
			c0.264,0.049,0.479,0.071,0.67,0.071c0.192,0,0.288,0.072,0.288,0.191c0,0.193-0.167,0.24-0.455,0.24h-2.276
			c-1.341,0-1.939-0.119-2.562-0.455c-1.03-0.551-1.941-1.678-3.282-3.521c-0.958-1.317-2.06-2.946-2.372-3.307
			c-0.119-0.143-0.264-0.168-0.431-0.168l-2.085-0.047c-0.119,0-0.191,0.047-0.191,0.19v0.336c0,2.228,0,4.119,0.12,5.128
			c0.071,0.692,0.216,1.221,0.935,1.315c0.359,0.049,0.887,0.096,1.174,0.096c0.191,0,0.287,0.072,0.287,0.191
			c0,0.168-0.168,0.24-0.479,0.24c-1.391,0-3.162-0.072-3.521-0.072c-0.455,0-1.965,0.072-2.924,0.072
			c-0.311,0-0.479-0.072-0.479-0.24c0-0.119,0.096-0.191,0.383-0.191c0.359,0,0.647-0.047,0.863-0.096
			c0.479-0.096,0.599-0.623,0.694-1.315c0.12-1.009,0.12-2.9,0.12-5.104V118.36L101.571,118.36z M104.397,120.252
			c0,0.265,0.049,0.359,0.216,0.433c0.503,0.168,1.222,0.239,1.821,0.239c0.957,0,1.27-0.096,1.7-0.407
			c0.719-0.527,1.413-1.629,1.413-3.595c0-3.399-2.252-4.383-3.664-4.383c-0.6,0-1.031,0.023-1.271,0.096
			c-0.167,0.048-0.216,0.144-0.216,0.334L104.397,120.252L104.397,120.252z"/>
		<path d="M119.66,118.36c0-3.642,0-4.312-0.048-5.078c-0.048-0.814-0.287-1.223-0.814-1.342c-0.264-0.072-0.574-0.097-0.862-0.097
			c-0.239,0-0.384-0.049-0.384-0.239c0-0.144,0.191-0.191,0.575-0.191c0.911,0,2.42,0.072,3.114,0.072
			c0.6,0,2.013-0.072,2.923-0.072c0.312,0,0.503,0.049,0.503,0.191c0,0.19-0.144,0.239-0.383,0.239c-0.24,0-0.432,0.023-0.719,0.072
			c-0.646,0.119-0.839,0.527-0.887,1.365c-0.048,0.766-0.048,1.438-0.048,5.078v4.217c0,2.324,0,4.217,0.096,5.246
			c0.071,0.646,0.239,1.078,0.958,1.174c0.336,0.049,0.863,0.096,1.223,0.096c0.264,0,0.383,0.072,0.383,0.191
			c0,0.168-0.191,0.24-0.455,0.24c-1.581,0-3.09-0.072-3.737-0.072c-0.551,0-2.06,0.072-3.019,0.072
			c-0.312,0-0.479-0.072-0.479-0.24c0-0.119,0.096-0.191,0.383-0.191c0.359,0,0.646-0.047,0.862-0.096
			c0.479-0.096,0.623-0.502,0.694-1.197c0.12-1.006,0.12-2.897,0.12-5.223L119.66,118.36L119.66,118.36z"/>
		<path d="M136.36,129.237c-0.383-0.168-0.455-0.287-0.455-0.814c0-1.317,0.096-2.756,0.119-3.139
			c0.024-0.359,0.096-0.623,0.288-0.623c0.216,0,0.239,0.217,0.239,0.408c0,0.311,0.096,0.813,0.216,1.221
			c0.526,1.773,1.94,2.42,3.426,2.42c2.155,0,3.21-1.461,3.21-2.729c0-1.174-0.359-2.277-2.348-3.834l-1.102-0.861
			c-2.636-2.061-3.546-3.738-3.546-5.678c0-2.637,2.204-4.527,5.534-4.527c1.557,0,2.562,0.238,3.186,0.406
			c0.216,0.049,0.336,0.119,0.336,0.287c0,0.312-0.096,1.006-0.096,2.875c0,0.526-0.072,0.719-0.264,0.719
			c-0.168,0-0.24-0.145-0.24-0.432c0-0.215-0.119-0.957-0.623-1.58c-0.359-0.455-1.053-1.174-2.61-1.174
			c-1.772,0-2.851,1.028-2.851,2.467c0,1.102,0.551,1.94,2.539,3.449l0.67,0.504c2.899,2.18,3.93,3.832,3.93,6.108
			c0,1.39-0.527,3.041-2.252,4.168c-1.197,0.767-2.539,0.982-3.809,0.982C138.467,129.86,137.389,129.692,136.36,129.237z"/>
		<path d="M151.981,127.249c-2.349-2.061-2.972-4.744-2.972-7.067c0-1.63,0.505-4.455,2.804-6.562
			c1.726-1.582,4.001-2.539,7.569-2.539c1.486,0,2.373,0.096,3.476,0.238c0.91,0.119,1.677,0.336,2.396,0.408
			c0.264,0.022,0.358,0.143,0.358,0.287c0,0.19-0.071,0.479-0.118,1.315c-0.05,0.791-0.024,2.109-0.072,2.588
			c-0.023,0.359-0.072,0.551-0.287,0.551c-0.191,0-0.24-0.19-0.24-0.526c-0.023-0.742-0.335-1.58-0.934-2.203
			c-0.791-0.838-2.66-1.484-4.863-1.484c-2.084,0-3.449,0.525-4.504,1.484c-1.75,1.604-2.204,3.881-2.204,6.205
			c0,5.701,4.337,8.527,7.546,8.527c2.133,0,3.426-0.238,4.385-1.343c0.406-0.455,0.719-1.147,0.814-1.58
			c0.072-0.383,0.119-0.479,0.311-0.479c0.168,0,0.217,0.166,0.217,0.359c0,0.286-0.287,2.37-0.527,3.186
			c-0.119,0.406-0.215,0.527-0.622,0.695c-0.959,0.383-2.779,0.551-4.312,0.551C156.917,129.86,154.162,129.141,151.981,127.249z"/>
		<path d="M168.178,120.469c0-4.098,2.706-9.391,9.894-9.391c5.967,0,9.68,3.473,9.68,8.959s-3.834,9.822-9.918,9.822
			C170.958,129.86,168.178,124.709,168.178,120.469z M184.397,120.924c0-5.366-3.091-8.696-7.021-8.696
			c-2.756,0-5.894,1.532-5.894,7.498c0,4.983,2.755,8.936,7.354,8.936C180.516,128.661,184.397,127.846,184.397,120.924z"/>
		<path d="M192.759,118.36c0-3.642,0-4.312-0.047-5.078c-0.049-0.814-0.239-1.197-1.03-1.365c-0.19-0.049-0.599-0.071-0.935-0.071
			c-0.264,0-0.408-0.05-0.408-0.216c0-0.168,0.168-0.217,0.527-0.217c1.27,0,2.779,0.072,3.282,0.072
			c0.813,0,2.636-0.072,3.378-0.072c1.51,0,3.114,0.146,4.408,1.031c0.67,0.455,1.629,1.676,1.629,3.281
			c0,1.772-0.742,3.401-3.162,5.366c2.133,2.683,3.785,4.814,5.198,6.3c1.341,1.391,2.323,1.559,2.683,1.629
			c0.264,0.049,0.479,0.071,0.672,0.071c0.191,0,0.287,0.072,0.287,0.191c0,0.193-0.168,0.24-0.455,0.24h-2.275
			c-1.342,0-1.94-0.119-2.563-0.455c-1.028-0.551-1.94-1.678-3.28-3.521c-0.959-1.317-2.062-2.946-2.373-3.307
			c-0.119-0.143-0.264-0.168-0.431-0.168l-2.085-0.047c-0.119,0-0.191,0.047-0.191,0.19v0.336c0,2.228,0,4.119,0.121,5.128
			c0.07,0.692,0.215,1.221,0.934,1.315c0.359,0.049,0.887,0.096,1.174,0.096c0.191,0,0.287,0.072,0.287,0.191
			c0,0.168-0.167,0.24-0.479,0.24c-1.391,0-3.162-0.072-3.521-0.072c-0.455,0-1.965,0.072-2.923,0.072
			c-0.312,0-0.479-0.072-0.479-0.24c0-0.119,0.096-0.191,0.385-0.191c0.358,0,0.646-0.047,0.861-0.096
			c0.479-0.096,0.6-0.623,0.695-1.315c0.119-1.009,0.119-2.9,0.119-5.104v-4.215H192.759z M195.587,120.252
			c0,0.265,0.047,0.359,0.216,0.433c0.502,0.168,1.221,0.239,1.819,0.239c0.959,0,1.271-0.096,1.701-0.407
			c0.719-0.527,1.413-1.629,1.413-3.595c0-3.399-2.252-4.383-3.665-4.383c-0.6,0-1.029,0.023-1.27,0.096
			c-0.168,0.048-0.217,0.144-0.217,0.334v7.283H195.587z"/>
		<path d="M210.85,118.36c0-3.642,0-4.312-0.048-5.078c-0.049-0.814-0.239-1.197-1.03-1.365c-0.19-0.049-0.599-0.071-0.935-0.071
			c-0.264,0-0.407-0.05-0.407-0.216c0-0.168,0.168-0.217,0.526-0.217c0.646,0,1.342,0.023,1.94,0.023
			c0.623,0.024,1.174,0.049,1.509,0.049c0.768,0,5.535,0,5.99-0.023c0.455-0.049,0.838-0.096,1.029-0.145
			c0.119-0.023,0.264-0.096,0.384-0.096s0.144,0.096,0.144,0.215c0,0.168-0.119,0.457-0.19,1.559
			c-0.024,0.238-0.072,1.293-0.12,1.58c-0.023,0.121-0.071,0.264-0.239,0.264s-0.216-0.118-0.216-0.336
			c0-0.166-0.023-0.573-0.145-0.86c-0.168-0.433-0.406-0.72-1.604-0.863c-0.407-0.047-2.922-0.096-3.401-0.096
			c-0.119,0-0.168,0.071-0.168,0.239v6.062c0,0.168,0.024,0.264,0.168,0.264c0.526,0,3.282,0,3.834-0.047
			c0.573-0.049,0.934-0.121,1.149-0.359c0.167-0.192,0.263-0.312,0.383-0.312c0.097,0,0.168,0.049,0.168,0.191
			c0,0.145-0.096,0.526-0.19,1.75c-0.025,0.479-0.098,1.438-0.098,1.604c0,0.193,0,0.455-0.216,0.455
			c-0.168,0-0.215-0.096-0.215-0.215c-0.024-0.24-0.024-0.551-0.097-0.861c-0.119-0.479-0.455-0.84-1.342-0.936
			c-0.455-0.047-2.826-0.072-3.401-0.072c-0.119,0-0.144,0.096-0.144,0.24v1.893c0,0.814-0.024,3.019,0,3.713
			c0.047,1.654,0.43,2.013,2.875,2.013c0.621,0,1.629,0,2.25-0.287c0.623-0.287,0.912-0.789,1.078-1.771
			c0.049-0.264,0.098-0.358,0.264-0.358c0.191,0,0.191,0.19,0.191,0.43c0,0.553-0.191,2.182-0.311,2.66
			c-0.168,0.623-0.383,0.623-1.295,0.623c-1.795,0-3.113-0.05-4.144-0.072c-1.03-0.047-1.772-0.072-2.491-0.072
			c-0.265,0-0.791,0-1.365,0.025c-0.551,0-1.174,0.047-1.653,0.047c-0.312,0-0.479-0.072-0.479-0.24c0-0.119,0.096-0.19,0.385-0.19
			c0.359,0,0.646-0.048,0.861-0.097c0.479-0.096,0.6-0.623,0.695-1.315c0.119-1.009,0.119-2.9,0.119-5.104L210.85,118.36
			L210.85,118.36z"/>
	</g>
	<g>
		<path fill="#333333" d="M32.92,215.283l6.589-4.271l0.497,0.766l-6.589,4.271L32.92,215.283z"/>
		<path fill="#333333" d="M37.091,221.406l3.111-2.196c0.392-0.276,0.621-0.572,0.688-0.889c0.067-0.314-0.033-0.661-0.303-1.041
			c-0.354-0.503-0.752-0.775-1.189-0.818c-0.437-0.042-0.969,0.159-1.594,0.602l-2.523,1.78l-0.515-0.728l4.809-3.396l0.419,0.593
			l-0.575,0.584l0.024,0.034c0.343-0.019,0.674,0.061,0.995,0.238c0.32,0.178,0.598,0.432,0.829,0.762
			c0.409,0.58,0.577,1.112,0.505,1.604c-0.073,0.489-0.416,0.951-1.03,1.386l-3.137,2.214L37.091,221.406z"/>
		<path fill="#333333" d="M42.608,225.991c-0.432,0.337-0.891,0.436-1.376,0.297s-0.955-0.498-1.409-1.08
			c-0.48-0.616-0.758-1.171-0.832-1.668l0.652-0.509c0.062,0.311,0.159,0.62,0.293,0.927c0.136,0.306,0.295,0.577,0.48,0.813
			c0.286,0.367,0.564,0.604,0.835,0.71c0.272,0.104,0.528,0.063,0.768-0.122c0.182-0.142,0.274-0.34,0.28-0.599
			c0.007-0.257-0.08-0.68-0.261-1.271c-0.177-0.558-0.275-0.975-0.298-1.251c-0.021-0.274,0.009-0.518,0.091-0.726
			c0.084-0.208,0.231-0.395,0.443-0.561c0.378-0.294,0.797-0.374,1.256-0.236c0.458,0.138,0.896,0.474,1.315,1.01
			c0.39,0.499,0.67,1.066,0.839,1.703l-0.766,0.195c-0.173-0.615-0.405-1.111-0.701-1.491c-0.26-0.333-0.508-0.543-0.744-0.631
			c-0.237-0.088-0.447-0.06-0.631,0.083c-0.124,0.099-0.205,0.212-0.243,0.345c-0.038,0.132-0.041,0.299-0.01,0.502
			c0.03,0.202,0.128,0.562,0.291,1.081c0.23,0.704,0.318,1.234,0.267,1.588C43.095,225.454,42.916,225.75,42.608,225.991z"/>
		<path fill="#333333" d="M44.264,229.494c0.102,0.12,0.209,0.229,0.32,0.326c0.113,0.098,0.206,0.171,0.281,0.221l-0.521,0.439
			c-0.098-0.044-0.22-0.128-0.363-0.253c-0.144-0.123-0.265-0.243-0.361-0.358c-0.734-0.871-0.643-1.692,0.275-2.467l2.678-2.255
			l-0.544-0.646l0.329-0.275l0.827,0.404l1.203-0.521l0.332,0.395l-1.044,0.879l1.102,1.308l-0.53,0.445l-1.101-1.307l-2.649,2.231
			c-0.271,0.229-0.426,0.468-0.461,0.72C44,229.031,44.075,229.268,44.264,229.494z"/>
		<path fill="#333333" d="M45.941,232.358l-0.594-0.665l4.396-3.916l0.593,0.666L45.941,232.358z M50.884,226.66
			c0.152-0.135,0.297-0.198,0.436-0.186c0.137,0.012,0.256,0.073,0.355,0.186c0.095,0.107,0.142,0.232,0.139,0.374
			c-0.004,0.142-0.079,0.279-0.229,0.412c-0.149,0.134-0.296,0.194-0.439,0.182c-0.143-0.012-0.261-0.07-0.355-0.178
			c-0.102-0.111-0.148-0.238-0.141-0.379C50.656,226.93,50.734,226.793,50.884,226.66z"/>
		<path fill="#333333" d="M49.24,235.005c0.107,0.113,0.221,0.218,0.338,0.309c0.117,0.091,0.215,0.159,0.292,0.205l-0.497,0.468
			c-0.1-0.039-0.226-0.116-0.376-0.232c-0.151-0.114-0.279-0.229-0.382-0.338c-0.78-0.829-0.733-1.653,0.14-2.477l2.549-2.4
			l-0.577-0.614l0.312-0.295l0.849,0.36l1.173-0.588l0.354,0.375l-0.993,0.937l1.17,1.242l-0.504,0.477l-1.172-1.244l-2.521,2.376
			c-0.259,0.242-0.398,0.489-0.421,0.741C48.949,234.558,49.038,234.791,49.24,235.005z"/>
		<path fill="#333333" d="M55.194,233.585l-2.665,2.734c-0.335,0.344-0.508,0.676-0.516,0.996c-0.009,0.322,0.153,0.646,0.487,0.971
			c0.44,0.431,0.879,0.624,1.318,0.582c0.439-0.043,0.925-0.337,1.457-0.883l2.16-2.215l0.638,0.623l-4.108,4.214l-0.527-0.515
			l0.458-0.654l-0.034-0.033c-0.333,0.08-0.669,0.062-1.008-0.054c-0.34-0.116-0.658-0.319-0.956-0.609
			c-0.513-0.5-0.778-0.996-0.796-1.489c-0.018-0.49,0.235-1.005,0.758-1.542l2.688-2.757L55.194,233.585z"/>
		<path fill="#333333" d="M57.538,242.989c0.117,0.104,0.238,0.197,0.363,0.277c0.125,0.082,0.228,0.141,0.309,0.18l-0.456,0.508
			c-0.103-0.029-0.233-0.097-0.395-0.199c-0.16-0.103-0.297-0.203-0.408-0.304c-0.849-0.76-0.873-1.587-0.074-2.479l2.337-2.608
			l-0.629-0.563l0.287-0.319l0.875,0.287l1.119-0.687l0.384,0.343l-0.91,1.018l1.273,1.14l-0.463,0.518l-1.273-1.141l-2.31,2.582
			c-0.236,0.264-0.355,0.522-0.356,0.776C57.209,242.567,57.319,242.792,57.538,242.989z"/>
		<path fill="#333333" d="M59.599,245.591l-0.68-0.575l3.803-4.492l0.681,0.575L59.599,245.591z M63.696,239.256
			c0.132-0.155,0.266-0.237,0.404-0.245c0.138-0.009,0.265,0.037,0.38,0.135c0.108,0.092,0.171,0.209,0.188,0.351
			s-0.04,0.288-0.17,0.441c-0.129,0.152-0.266,0.232-0.408,0.239c-0.143,0.01-0.269-0.032-0.378-0.126
			c-0.115-0.097-0.18-0.216-0.191-0.354C63.508,239.555,63.566,239.41,63.696,239.256z"/>
		<path fill="#333333" d="M67.22,247.916c-0.593,0.755-1.244,1.196-1.956,1.323c-0.714,0.127-1.405-0.073-2.077-0.599
			c-0.414-0.324-0.706-0.709-0.874-1.156c-0.17-0.446-0.199-0.919-0.089-1.419c0.109-0.502,0.355-0.996,0.736-1.483
			c0.591-0.756,1.241-1.196,1.949-1.322c0.708-0.125,1.396,0.074,2.068,0.6c0.648,0.508,0.995,1.127,1.039,1.857
			C68.062,246.447,67.796,247.179,67.22,247.916z M63.688,245.151c-0.464,0.593-0.699,1.136-0.704,1.633
			c-0.007,0.494,0.222,0.922,0.681,1.282c0.46,0.357,0.93,0.478,1.41,0.355c0.479-0.123,0.951-0.481,1.418-1.076
			c0.461-0.59,0.692-1.13,0.693-1.622s-0.23-0.922-0.696-1.285c-0.46-0.36-0.924-0.48-1.394-0.362
			C64.625,244.195,64.156,244.552,63.688,245.151z"/>
		<path fill="#333333" d="M70.371,253.771l2.184-3.119c0.274-0.394,0.391-0.749,0.347-1.067c-0.043-0.317-0.256-0.611-0.637-0.879
			c-0.504-0.354-0.97-0.476-1.396-0.368c-0.426,0.109-0.857,0.479-1.297,1.105l-1.771,2.53l-0.729-0.513l3.375-4.82l0.594,0.415
			l-0.343,0.742l0.035,0.024c0.316-0.133,0.654-0.171,1.017-0.112c0.361,0.06,0.706,0.203,1.037,0.437
			c0.582,0.406,0.921,0.854,1.019,1.339c0.097,0.485-0.069,1.036-0.501,1.65l-2.202,3.146L70.371,253.771z"/>
		<path fill="#333333" d="M76.124,257.486l0.294-0.804l-0.036-0.021c-0.444,0.154-0.825,0.212-1.142,0.168
			c-0.317-0.044-0.66-0.182-1.03-0.413c-0.495-0.31-0.804-0.681-0.925-1.11c-0.121-0.431-0.034-0.882,0.261-1.353
			c0.631-1.008,1.766-1.031,3.409-0.072l0.863,0.504l0.193-0.311c0.246-0.392,0.343-0.733,0.291-1.024
			c-0.052-0.293-0.263-0.555-0.634-0.786c-0.416-0.26-0.967-0.427-1.65-0.5l0.129-0.725c0.33,0.021,0.665,0.084,1.006,0.191
			c0.34,0.106,0.657,0.253,0.952,0.438c0.594,0.372,0.952,0.78,1.074,1.225c0.122,0.443,0,0.957-0.364,1.54l-2.131,3.404
			L76.124,257.486z M74.75,255.885c0.47,0.295,0.921,0.396,1.352,0.307c0.43-0.09,0.79-0.367,1.08-0.831l0.283-0.451l-0.776-0.44
			c-0.615-0.354-1.107-0.532-1.475-0.533c-0.369-0.001-0.664,0.173-0.882,0.521c-0.171,0.273-0.218,0.533-0.142,0.779
			C74.265,255.483,74.453,255.7,74.75,255.885z"/>
		<path fill="#333333" d="M79.433,259.433l-0.773-0.445l4.173-7.242l0.772,0.445L79.433,259.433z"/>
		<path fill="#333333" d="M206.269,262.88l-3.545-7.007l0.814-0.413l3.545,7.008L206.269,262.88z"/>
		<path fill="#333333" d="M212.8,259.385l-1.854-3.325c-0.232-0.421-0.503-0.682-0.81-0.779c-0.306-0.101-0.662-0.037-1.069,0.188
			c-0.537,0.3-0.85,0.664-0.938,1.097c-0.088,0.429,0.055,0.979,0.428,1.646l1.502,2.698l-0.777,0.436l-2.865-5.144l0.633-0.353
			l0.52,0.633l0.037-0.021c0.02-0.343,0.133-0.663,0.344-0.963s0.492-0.549,0.846-0.745c0.619-0.345,1.17-0.455,1.647-0.33
			c0.479,0.124,0.902,0.516,1.269,1.173l1.869,3.354L212.8,259.385z"/>
		<path fill="#333333" d="M215.085,251.95l-1.277,0.784l2.717,4.426l-0.76,0.467l-2.719-4.427l-0.896,0.552l-0.211-0.344
			l0.729-0.826l-0.172-0.277c-0.756-1.233-0.596-2.181,0.48-2.843c0.266-0.162,0.609-0.301,1.031-0.413l0.178,0.73
			c-0.352,0.085-0.63,0.191-0.838,0.318c-0.286,0.177-0.439,0.401-0.461,0.677c-0.02,0.273,0.099,0.622,0.357,1.044l0.199,0.325
			l1.277-0.785L215.085,251.95z"/>
		<path fill="#333333" d="M218.012,249.073c0.219-0.144,0.426-0.256,0.622-0.334l0.354,0.758c-0.232,0.09-0.426,0.188-0.582,0.289
			c-0.396,0.263-0.629,0.648-0.697,1.157c-0.069,0.509,0.056,1.004,0.373,1.483l1.742,2.636l-0.744,0.492l-3.248-4.91l0.614-0.406
			l0.687,0.853l0.035-0.022c-0.028-0.439,0.027-0.831,0.17-1.174C217.48,249.549,217.707,249.277,218.012,249.073z"/>
		<path fill="#333333" d="M226.119,250.674l-0.636-0.573l-0.034,0.024c-0.021,0.47-0.111,0.843-0.271,1.12
			c-0.16,0.278-0.415,0.544-0.77,0.801c-0.474,0.344-0.933,0.489-1.377,0.44c-0.445-0.049-0.83-0.299-1.156-0.748
			c-0.695-0.962-0.293-2.025,1.215-3.188l0.789-0.612l-0.215-0.294c-0.271-0.374-0.552-0.594-0.842-0.654
			c-0.291-0.062-0.611,0.036-0.967,0.293c-0.396,0.287-0.757,0.734-1.083,1.341l-0.621-0.392c0.144-0.297,0.327-0.584,0.554-0.858
			c0.229-0.274,0.481-0.516,0.764-0.719c0.568-0.412,1.08-0.591,1.537-0.538c0.457,0.055,0.889,0.359,1.291,0.916l2.356,3.254
			L226.119,250.674z M224.119,251.347c0.449-0.326,0.715-0.705,0.793-1.139c0.076-0.432-0.045-0.87-0.367-1.312l-0.312-0.432
			l-0.7,0.554c-0.56,0.437-0.908,0.825-1.048,1.169c-0.14,0.341-0.088,0.679,0.153,1.012c0.189,0.261,0.41,0.402,0.669,0.424
			C223.563,251.645,223.833,251.552,224.119,251.347z"/>
		<path fill="#333333" d="M230.476,245.24c0.342,0.429,0.445,0.887,0.312,1.374c-0.136,0.486-0.49,0.96-1.067,1.419
			c-0.61,0.485-1.163,0.771-1.659,0.848l-0.516-0.646c0.311-0.064,0.619-0.165,0.922-0.303c0.306-0.138,0.576-0.301,0.812-0.487
			c0.363-0.29,0.599-0.571,0.7-0.844c0.104-0.272,0.062-0.527-0.128-0.767c-0.144-0.18-0.345-0.271-0.601-0.273
			c-0.258-0.003-0.681,0.088-1.27,0.272c-0.557,0.183-0.973,0.285-1.247,0.312c-0.274,0.023-0.519-0.003-0.728-0.085
			c-0.207-0.081-0.396-0.228-0.563-0.437c-0.299-0.376-0.382-0.793-0.25-1.253c0.134-0.46,0.466-0.903,0.997-1.327
			c0.496-0.396,1.061-0.68,1.693-0.855l0.205,0.765c-0.613,0.179-1.107,0.417-1.483,0.716c-0.33,0.265-0.539,0.516-0.624,0.752
			c-0.086,0.236-0.057,0.445,0.089,0.628c0.099,0.124,0.214,0.204,0.347,0.24c0.133,0.037,0.299,0.038,0.502,0.005
			c0.203-0.032,0.562-0.134,1.078-0.303c0.703-0.235,1.231-0.329,1.584-0.281C229.934,244.757,230.233,244.935,230.476,245.24z"/>
		<path fill="#333333" d="M233.962,243.55c0.119-0.103,0.229-0.21,0.324-0.323c0.096-0.112,0.168-0.206,0.217-0.281l0.443,0.517
			c-0.042,0.1-0.125,0.222-0.248,0.366c-0.121,0.146-0.24,0.269-0.354,0.366c-0.863,0.741-1.688,0.657-2.469-0.252l-2.283-2.656
			l-0.639,0.549l-0.281-0.325l0.398-0.829l-0.535-1.199l0.393-0.336l0.89,1.035l1.296-1.114l0.451,0.525l-1.296,1.113l2.258,2.628
			c0.231,0.27,0.474,0.42,0.726,0.455C233.503,243.821,233.74,243.743,233.962,243.55z"/>
		<path fill="#333333" d="M234.076,236.219c0.191-0.178,0.379-0.319,0.562-0.429l0.468,0.691c-0.216,0.126-0.391,0.251-0.527,0.378
			c-0.352,0.322-0.521,0.74-0.508,1.255c0.014,0.512,0.215,0.981,0.605,1.406l2.138,2.322l-0.655,0.604l-3.986-4.33l0.541-0.499
			l0.813,0.733l0.032-0.029c-0.1-0.43-0.104-0.825-0.02-1.188C233.625,236.775,233.802,236.469,234.076,236.219z"/>
		<path fill="#333333" d="M236.225,234.304l2.711,2.689c0.34,0.338,0.671,0.513,0.993,0.524c0.32,0.012,0.646-0.148,0.975-0.479
			c0.434-0.438,0.631-0.875,0.592-1.313c-0.037-0.439-0.326-0.928-0.867-1.465l-2.196-2.18l0.628-0.633l4.18,4.146l-0.521,0.522
			l-0.649-0.466l-0.034,0.034c0.076,0.334,0.057,0.671-0.062,1.009c-0.118,0.339-0.325,0.655-0.617,0.951
			c-0.504,0.509-1.002,0.769-1.495,0.781c-0.491,0.014-1.005-0.243-1.536-0.771l-2.732-2.713L236.225,234.304z"/>
		<path fill="#333333" d="M246.514,232.182c-0.571,0.633-1.208,0.946-1.911,0.941c-0.701-0.004-1.409-0.328-2.122-0.97
			c-0.731-0.66-1.138-1.346-1.218-2.058c-0.081-0.713,0.171-1.395,0.758-2.046c0.189-0.21,0.402-0.399,0.637-0.568
			c0.235-0.169,0.438-0.286,0.606-0.353l0.379,0.711c-0.19,0.095-0.384,0.209-0.577,0.35c-0.195,0.138-0.354,0.272-0.473,0.406
			c-0.801,0.887-0.635,1.842,0.498,2.862c0.537,0.485,1.048,0.748,1.529,0.791c0.482,0.042,0.916-0.148,1.301-0.575
			c0.328-0.363,0.586-0.809,0.774-1.333l0.587,0.528C247.169,231.301,246.916,231.738,246.514,232.182z"/>
		<path fill="#333333" d="M249.353,227.748c0.102-0.121,0.189-0.245,0.266-0.373c0.077-0.127,0.133-0.23,0.17-0.313l0.522,0.438
			c-0.026,0.104-0.088,0.238-0.187,0.401c-0.098,0.164-0.192,0.304-0.289,0.419c-0.731,0.873-1.559,0.924-2.478,0.155l-2.687-2.248
			l-0.541,0.646l-0.33-0.275l0.259-0.885l-0.724-1.095l0.332-0.396l1.045,0.875l1.097-1.311l0.53,0.444l-1.096,1.311l2.655,2.225
			c0.272,0.228,0.535,0.338,0.788,0.33C248.944,228.089,249.166,227.973,249.353,227.748z"/>
		<path fill="#333333" d="M247.242,221.997l3.031,2.322c0.381,0.292,0.732,0.423,1.053,0.394c0.319-0.029,0.621-0.229,0.905-0.6
			c0.374-0.488,0.515-0.948,0.42-1.379c-0.094-0.43-0.442-0.878-1.05-1.342l-2.454-1.883l0.542-0.707l4.672,3.579l-0.445,0.585
			l-0.707-0.378l-0.028,0.039c0.118,0.321,0.142,0.656,0.065,1.007c-0.074,0.352-0.238,0.691-0.49,1.021
			c-0.437,0.568-0.897,0.891-1.385,0.967c-0.484,0.076-1.025-0.113-1.621-0.568l-3.057-2.343L247.242,221.997z"/>
		<path fill="#333333" d="M252.353,214.83c0.15-0.215,0.301-0.395,0.455-0.54l0.607,0.574c-0.183,0.169-0.328,0.33-0.434,0.482
			c-0.273,0.391-0.348,0.836-0.223,1.334c0.123,0.499,0.422,0.913,0.896,1.242l2.591,1.808l-0.51,0.729l-4.83-3.365l0.42-0.603
			l0.953,0.538l0.023-0.035c-0.188-0.396-0.28-0.782-0.275-1.153C252.035,215.469,252.142,215.133,252.353,214.83z"/>
		<path fill="#333333" d="M259.966,214.332c-0.465,0.733-1.059,1.172-1.774,1.312c-0.716,0.14-1.473-0.041-2.269-0.546
			c-0.801-0.509-1.312-1.11-1.533-1.805c-0.221-0.693-0.12-1.372,0.301-2.038c0.396-0.623,0.914-0.984,1.555-1.088
			c0.639-0.103,1.295,0.06,1.965,0.484l0.478,0.302l-2.173,3.424c0.594,0.355,1.131,0.489,1.609,0.401
			c0.479-0.088,0.881-0.386,1.203-0.895c0.34-0.534,0.563-1.135,0.672-1.8l0.672,0.426c-0.055,0.34-0.133,0.644-0.232,0.912
			C260.337,213.693,260.18,213.996,259.966,214.332z M255.316,211.666c-0.253,0.399-0.324,0.8-0.216,1.202
			c0.11,0.402,0.38,0.771,0.813,1.104l1.648-2.6c-0.475-0.302-0.906-0.427-1.292-0.375
			C255.882,211.05,255.565,211.272,255.316,211.666z"/>
	</g>
	<g>
		<path fill="#333333" d="M46.574,58.948c0.538,0.433,0.801,0.966,0.787,1.6c-0.013,0.635-0.289,1.285-0.827,1.954
			c-0.585,0.727-1.127,1.207-1.628,1.447l-0.687-0.552c0.309-0.166,0.611-0.372,0.912-0.618c0.299-0.246,0.565-0.515,0.799-0.805
			c0.382-0.475,0.579-0.904,0.592-1.288c0.014-0.386-0.14-0.707-0.461-0.965c-0.212-0.171-0.42-0.269-0.623-0.292
			c-0.204-0.023-0.443,0.019-0.719,0.126c-0.276,0.106-0.648,0.307-1.121,0.597c-0.662,0.404-1.23,0.616-1.706,0.636
			c-0.476,0.021-0.938-0.149-1.387-0.512c-0.471-0.381-0.704-0.859-0.697-1.438c0.006-0.579,0.244-1.158,0.713-1.741
			c0.489-0.608,1.052-1.077,1.686-1.408l0.44,0.721c-0.618,0.333-1.119,0.739-1.504,1.217c-0.302,0.376-0.458,0.735-0.467,1.078
			c-0.01,0.342,0.13,0.629,0.417,0.859c0.212,0.171,0.417,0.271,0.615,0.303s0.429-0.001,0.69-0.096
			c0.263-0.096,0.615-0.277,1.061-0.551c0.745-0.456,1.346-0.7,1.803-0.73C45.717,58.458,46.155,58.611,46.574,58.948z"/>
		<path fill="#333333" d="M50.466,53.233c0.716,0.639,1.114,1.317,1.194,2.037s-0.164,1.396-0.731,2.034
			c-0.351,0.392-0.754,0.657-1.21,0.797c-0.457,0.143-0.932,0.14-1.424-0.001c-0.492-0.145-0.969-0.42-1.431-0.832
			c-0.717-0.642-1.114-1.316-1.193-2.031c-0.08-0.714,0.163-1.39,0.731-2.025c0.548-0.614,1.188-0.919,1.92-0.917
			C49.055,52.298,49.769,52.61,50.466,53.233z M47.48,56.579c0.561,0.501,1.089,0.771,1.582,0.809
			c0.494,0.038,0.936-0.16,1.324-0.597c0.39-0.435,0.538-0.896,0.446-1.384c-0.09-0.487-0.417-0.981-0.981-1.485
			c-0.558-0.498-1.083-0.765-1.574-0.797c-0.491-0.033-0.934,0.171-1.327,0.611c-0.39,0.436-0.539,0.892-0.451,1.369
			C46.586,55.582,46.914,56.074,47.48,56.579z"/>
		<path fill="#333333" d="M55.598,52.342c-0.597,0.607-1.247,0.895-1.948,0.86c-0.702-0.035-1.396-0.389-2.079-1.061
			c-0.702-0.689-1.079-1.394-1.13-2.107c-0.051-0.714,0.231-1.386,0.847-2.012c0.197-0.201,0.418-0.382,0.66-0.541
			c0.241-0.159,0.449-0.269,0.62-0.324l0.348,0.726c-0.194,0.086-0.392,0.192-0.592,0.323c-0.2,0.129-0.362,0.259-0.488,0.386
			c-0.838,0.854-0.714,1.813,0.374,2.884c0.517,0.508,1.015,0.793,1.495,0.854c0.48,0.062,0.921-0.11,1.323-0.519
			c0.344-0.351,0.621-0.783,0.831-1.299l0.563,0.553C56.292,51.491,56.017,51.916,55.598,52.342z"/>
		<path fill="#333333" d="M52.516,44.731c-0.141-0.147-0.207-0.29-0.2-0.43c0.007-0.137,0.065-0.258,0.174-0.361
			c0.104-0.099,0.227-0.149,0.369-0.15s0.281,0.071,0.42,0.216c0.138,0.146,0.204,0.289,0.196,0.434
			c-0.007,0.143-0.062,0.263-0.166,0.361c-0.109,0.104-0.234,0.154-0.375,0.152C52.794,44.95,52.655,44.876,52.516,44.731z
			 M58.376,49.483l-0.646,0.614l-4.061-4.264l0.646-0.616L58.376,49.483z"/>
		<path fill="#333333" d="M62.618,45.635l-0.688-0.51l-0.031,0.028c0.024,0.471-0.03,0.853-0.162,1.144
			c-0.132,0.29-0.36,0.581-0.688,0.871c-0.438,0.388-0.879,0.577-1.326,0.572c-0.447-0.007-0.855-0.217-1.223-0.633
			c-0.788-0.891-0.489-1.986,0.896-3.29l0.727-0.688l-0.242-0.271c-0.306-0.346-0.605-0.536-0.9-0.568
			c-0.295-0.034-0.606,0.095-0.934,0.384C57.68,43,57.363,43.481,57.1,44.117l-0.658-0.331c0.113-0.31,0.27-0.612,0.469-0.908
			c0.2-0.296,0.43-0.561,0.689-0.789c0.525-0.465,1.019-0.693,1.479-0.685c0.459,0.009,0.918,0.271,1.373,0.785l2.663,3.009
			L62.618,45.635z M60.693,46.501c0.415-0.368,0.641-0.771,0.677-1.21c0.035-0.437-0.129-0.86-0.491-1.271l-0.353-0.398
			l-0.643,0.619c-0.514,0.489-0.824,0.909-0.93,1.264c-0.106,0.355-0.021,0.687,0.251,0.993c0.215,0.24,0.45,0.36,0.708,0.357
			C60.17,46.852,60.43,46.733,60.693,46.501z"/>
		<path fill="#333333" d="M65.373,43.333l-0.689,0.565l-5.307-6.455l0.689-0.566L65.373,43.333z"/>
		<path fill="#333333" d="M218.347,36.912l-3.659-2.401l4.31-6.564l3.658,2.402l-0.443,0.678l-2.896-1.9l-1.388,2.114l2.721,1.786
			l-0.442,0.674l-2.721-1.785L215.9,34.33l2.896,1.901L218.347,36.912z"/>
		<path fill="#333333" d="M221.684,39.431c-0.688-0.5-1.069-1.101-1.142-1.8c-0.07-0.698,0.176-1.437,0.738-2.214
			c0.577-0.798,1.217-1.274,1.914-1.433c0.7-0.156,1.404,0.021,2.115,0.537c0.229,0.166,0.439,0.356,0.634,0.57
			c0.193,0.217,0.331,0.403,0.413,0.564l-0.666,0.454c-0.113-0.18-0.249-0.358-0.406-0.537c-0.158-0.179-0.311-0.321-0.455-0.426
			c-0.969-0.701-1.899-0.435-2.795,0.801c-0.424,0.586-0.632,1.121-0.621,1.605c0.01,0.484,0.246,0.895,0.709,1.229
			c0.397,0.288,0.867,0.498,1.408,0.629l-0.462,0.64C222.63,39.99,222.167,39.781,221.684,39.431z"/>
		<path fill="#333333" d="M230.02,42.036c-0.599,0.749-1.256,1.184-1.97,1.303c-0.715,0.119-1.403-0.088-2.069-0.62
			c-0.411-0.328-0.698-0.717-0.862-1.163c-0.166-0.448-0.191-0.923-0.074-1.422c0.113-0.5,0.365-0.99,0.752-1.476
			c0.6-0.75,1.254-1.184,1.963-1.302c0.707-0.119,1.396,0.088,2.062,0.62c0.644,0.514,0.983,1.137,1.021,1.867
			C230.88,40.575,230.604,41.305,230.02,42.036z M226.518,39.235c-0.472,0.587-0.711,1.129-0.722,1.624
			c-0.012,0.496,0.211,0.926,0.666,1.29c0.457,0.365,0.926,0.488,1.406,0.371c0.48-0.118,0.957-0.473,1.43-1.062
			c0.468-0.586,0.705-1.123,0.709-1.615c0.008-0.491-0.221-0.924-0.682-1.292c-0.457-0.363-0.92-0.49-1.391-0.376
			C227.462,38.288,226.992,38.642,226.518,39.235z"/>
		<path fill="#333333" d="M232.509,48.145l2.533-2.844c0.319-0.357,0.478-0.698,0.472-1.02c-0.007-0.322-0.183-0.638-0.53-0.947
			c-0.46-0.41-0.906-0.587-1.343-0.526c-0.437,0.058-0.908,0.372-1.418,0.943l-2.056,2.307l-0.666-0.594l3.916-4.396l0.543,0.482
			l-0.428,0.697l0.031,0.028c0.328-0.095,0.67-0.092,1.021,0.008c0.353,0.103,0.68,0.285,0.98,0.555
			c0.529,0.473,0.812,0.955,0.854,1.447c0.041,0.494-0.189,1.021-0.689,1.583l-2.555,2.867L232.509,48.145z"/>
		<path fill="#333333" d="M240.312,51.594c-0.678,0.683-1.375,1.045-2.1,1.086c-0.723,0.042-1.387-0.236-1.989-0.838
			c-0.374-0.37-0.619-0.787-0.735-1.251c-0.113-0.463-0.089-0.936,0.079-1.42c0.168-0.483,0.47-0.946,0.906-1.387
			c0.676-0.681,1.373-1.042,2.09-1.084c0.72-0.041,1.379,0.236,1.983,0.837c0.584,0.581,0.856,1.235,0.814,1.966
			C241.32,50.235,240.971,50.932,240.312,51.594z M237.128,48.436c-0.529,0.533-0.828,1.046-0.892,1.537
			c-0.063,0.49,0.112,0.942,0.526,1.354c0.414,0.41,0.865,0.584,1.357,0.521c0.489-0.066,1.002-0.367,1.533-0.903
			c0.527-0.531,0.82-1.041,0.881-1.529c0.059-0.489-0.121-0.941-0.541-1.357c-0.414-0.411-0.861-0.585-1.344-0.522
			C238.171,47.596,237.664,47.897,237.128,48.436z"/>
		<path fill="#333333" d="M244.412,60.542l2.877-2.529c0.352-0.312,0.549-0.617,0.592-0.923c0.043-0.307-0.074-0.616-0.354-0.935
			c-0.367-0.416-0.758-0.62-1.172-0.607s-0.87,0.236-1.367,0.675l-2.468,2.173l-0.589-0.67l2.874-2.53
			c0.353-0.311,0.551-0.618,0.594-0.923c0.044-0.308-0.075-0.619-0.356-0.939c-0.369-0.418-0.766-0.615-1.188-0.588
			c-0.423,0.025-0.92,0.291-1.492,0.795l-2.318,2.04l-0.59-0.669l4.42-3.89l0.479,0.544l-0.51,0.642l0.029,0.032
			c0.326-0.062,0.649-0.032,0.975,0.092c0.322,0.122,0.609,0.326,0.859,0.611c0.608,0.69,0.756,1.362,0.442,2.015l0.028,0.032
			c0.348-0.072,0.697-0.041,1.053,0.09c0.354,0.132,0.672,0.357,0.954,0.677c0.438,0.501,0.642,0.988,0.604,1.462
			c-0.039,0.477-0.34,0.962-0.904,1.458l-2.883,2.536L244.412,60.542z"/>
		<path fill="#333333" d="M246.774,63.527l-0.553-0.699l4.616-3.651l0.554,0.699L246.774,63.527z M252.042,58.126
			c0.16-0.126,0.308-0.18,0.444-0.159c0.136,0.021,0.251,0.09,0.345,0.206c0.088,0.112,0.127,0.239,0.117,0.382
			c-0.013,0.141-0.098,0.273-0.255,0.397c-0.157,0.125-0.306,0.177-0.448,0.156c-0.142-0.021-0.256-0.086-0.346-0.199
			c-0.093-0.118-0.133-0.246-0.117-0.386C251.798,58.383,251.884,58.251,252.042,58.126z"/>
		<path fill="#333333" d="M249.384,67.151c-0.506-0.688-0.688-1.372-0.543-2.06c0.146-0.688,0.604-1.315,1.375-1.887
			c0.793-0.585,1.546-0.846,2.261-0.783c0.714,0.062,1.331,0.446,1.853,1.152c0.168,0.228,0.312,0.473,0.432,0.737
			c0.117,0.264,0.191,0.483,0.223,0.664l-0.771,0.229c-0.055-0.205-0.129-0.416-0.227-0.635c-0.096-0.218-0.197-0.4-0.304-0.544
			c-0.71-0.961-1.681-0.989-2.906-0.084c-0.582,0.43-0.942,0.876-1.079,1.342c-0.139,0.464-0.037,0.927,0.305,1.388
			c0.291,0.396,0.674,0.736,1.149,1.025l-0.635,0.469C250.117,67.97,249.74,67.632,249.384,67.151z"/>
	</g>
	<g>
		<g id="Forma_1_17_">
			<g>
				<path fill="#6D6E71" d="M147.821,8.889c-0.688-0.254-1.481-0.585-1.481-0.881c0-0.39,0.541-0.448,0.863-0.448
					c0.942,0,1.545,0.291,1.906,0.466l0.414,0.202l0.131-0.44l0.518-1.963l-0.287-0.137c-0.383-0.183-0.992-0.408-1.896-0.485v-1.32
					h-2.18v1.477c-1.513,0.396-2.445,1.479-2.445,2.897c0,1.832,1.53,2.586,2.864,3.04c1.132,0.386,1.289,0.665,1.289,0.905
					c0,0.361-0.514,0.523-1.023,0.523c-0.993,0-1.818-0.374-2.219-0.597l-0.432-0.237l-0.627,2.478l0.257,0.146
					c0.582,0.322,1.438,0.553,2.263,0.628v1.436h2.18v-1.589c1.594-0.389,2.576-1.506,2.576-2.99
					C150.492,10.481,149.693,9.55,147.821,8.889z"/>
			</g>
		</g>
	</g>
	<g>
		<g id="Forma_1_11_">
			<g>
				<path fill="#6D6E71" d="M146.371,271.965l-5.458,3.413h10.919L146.371,271.965z M146.371,274.696
					c-0.375,0-0.683-0.306-0.683-0.683c0-0.378,0.308-0.684,0.683-0.684c0.377,0,0.684,0.306,0.684,0.684
					C147.054,274.39,146.748,274.696,146.371,274.696z M141.252,281.52l-0.341,1.362h10.92l-0.343-1.362H141.252z M151.149,280.837
					v-4.094l0.341-0.683h-2.048l0.343,0.683v4.094H151.149z M142.958,280.837v-4.094l0.344-0.683h-2.049l0.342,0.683v4.094H142.958z
					 M148.417,280.837v-4.094l0.342-0.683h-2.047l0.341,0.683v4.094H148.417z M145.688,280.837v-4.094l0.342-0.683h-2.048
					l0.343,0.683v4.094H145.688z"/>
			</g>
		</g>
	</g>
	<g>
		<g id="Forma_1_14_">
			<g>
				<path fill="#6D6E71" d="M282.809,138.049c0-0.251-0.283-0.453-0.632-0.453h-8.239c-0.349,0-0.631,0.202-0.631,0.453
					c0,0.25,0,0.452,0,0.452h9.502V138.049z M287.737,143.311h-4.18c-0.349,0-0.63,0.203-0.63,0.454s0,0.453,0,0.453h5.439v-0.453
					C288.369,143.514,288.085,143.311,287.737,143.311z M282.613,138.765h-9.017v9.725c0,0.872,0.707,1.577,1.577,1.577h11.617
					c0.871,0,1.576-0.705,1.576-1.577v-3.97h-5.755L282.613,138.765L282.613,138.765z M286.785,144.968h0.65v1.552h-0.65V144.968z
					 M286.785,147.36h0.65v1.551h-0.65V147.36z M285.898,144.968h0.65v1.552h-0.65V144.968z M285.898,147.36h0.65v1.551h-0.65
					V147.36z M284.564,144.968h0.648v1.552h-0.648V144.968z M284.564,147.36h0.648v1.551h-0.648V147.36z M283.677,144.968h0.65
					v1.552h-0.65V144.968z M283.677,147.36h0.65v1.551h-0.65V147.36z M277.035,139.396h0.865v1.812h-0.865V139.396z
					 M277.035,142.077h0.865v1.814h-0.865V142.077z M277.035,144.758h0.865v1.812h-0.865V144.758z M275.173,146.57h-0.867v-1.812
					h0.867V146.57z M275.173,143.891h-0.867v-1.814h0.867V143.891z M275.173,141.209h-0.867v-1.812h0.867V141.209z M276.356,146.57
					h-0.868v-1.812h0.868V146.57z M276.356,143.891h-0.868v-1.814h0.868V143.891z M276.356,141.209h-0.868v-1.812h0.868V141.209z
					 M279.083,149.621h-2.051v-2.393h2.051V149.621z M279.083,146.57h-0.869v-1.812h0.869V146.57z M279.083,143.891h-0.869v-1.814
					h0.869V143.891z M279.083,141.209h-0.869v-1.812h0.869V141.209z M280.626,146.57h-0.867v-1.812h0.867V146.57z M280.626,143.891
					h-0.867v-1.814h0.867V143.891z M280.626,141.209h-0.867v-1.812h0.867V141.209z M281.81,146.57h-0.868v-1.812h0.868V146.57z
					 M281.81,143.891h-0.868v-1.814h0.868V143.891z M281.81,141.209h-0.868v-1.812h0.868V141.209z"/>
			</g>
		</g>
	</g>
	<g>
		<g id="Forma_1_9_">
			<g>
				<path fill="#6D6E71" d="M9.502,145.99c-1.371-0.573-1.81-1.056-1.81-2.09c0-0.621,0.419-0.418,0.604-1.555
					c0.076-0.473,0.444-0.009,0.516-1.087c0-0.429-0.201-0.535-0.201-0.535s0.103-0.636,0.142-1.123
					c0.05-0.608-0.306-2.184-2.208-2.184c-1.901,0-2.258,1.574-2.208,2.184c0.039,0.487,0.142,1.123,0.142,1.123
					s-0.201,0.106-0.201,0.535c0.071,1.078,0.44,0.614,0.518,1.087c0.184,1.137,0.602,0.934,0.602,1.555
					c0,1.034-0.438,1.517-1.809,2.09c-0.418,0.176-1.168,0.445-1.168,1.096v2.523h9.626c0,0,0-1.492,0-1.894
					C12.045,147.124,10.875,146.565,9.502,145.99z M16.274,149.609c0,0-0.026-2.624-0.188-2.896
					c-0.239-0.403-0.794-0.684-1.824-1.113c-1.027-0.432-1.356-0.791-1.356-1.567c0-0.466,0.313-0.314,0.451-1.166
					c0.058-0.354,0.335-0.007,0.388-0.812c0-0.322-0.15-0.402-0.15-0.402s0.076-0.478,0.106-0.844
					c0.037-0.457-0.23-1.638-1.655-1.638c-1.428,0-1.695,1.181-1.657,1.638c0.029,0.366,0.106,0.844,0.106,0.844
					s-0.15,0.08-0.15,0.402c0.052,0.807,0.33,0.457,0.387,0.812c0.138,0.852,0.452,0.7,0.452,1.166c0,0.527-0.153,0.865-0.573,1.16
					c2.244,1.123,2.545,1.353,2.545,2.356v2.06H16.274z"/>
			</g>
		</g>
	</g>
</g>
<g id="button">
	<rect x="80.854" y="159.629" fill="#FFFFFF" fill-opacity="0" width="140" height="27"/>
	<g>
		<path d="M87.228,171.889l-0.363-7.415h0.924l0.154,4.443c0.033,0.957,0.011,1.464,0,1.938h0.022
			c0.176-0.484,0.352-0.968,0.77-1.881l2.046-4.5h0.979l0.154,4.269c0.033,0.957,0.033,1.606,0.022,2.091h0.022
			c0.22-0.639,0.44-1.231,0.726-1.902l1.991-4.456h0.957l-3.443,7.415h-0.958l-0.198-4.215c-0.033-0.868-0.022-1.286,0.022-2.134
			h-0.033c-0.242,0.704-0.44,1.276-0.748,1.947l-2.068,4.4H87.228z"/>
		<path d="M95.291,171.889l1.485-7.812h0.913l-0.66,3.433h0.022c0.451-0.647,1.1-1.065,1.903-1.065c0.605,0,1.32,0.374,1.32,1.43
			c0,0.286-0.033,0.627-0.088,0.902l-0.594,3.113h-0.913l0.594-3.069c0.033-0.198,0.066-0.44,0.066-0.737
			c0-0.495-0.231-0.88-0.825-0.88c-0.704,0-1.596,0.825-1.815,2.024l-0.495,2.662H95.291z"/>
		<path d="M104.696,171.889c0-0.319,0.055-0.825,0.121-1.375h-0.022c-0.583,1.1-1.309,1.495-2.068,1.495
			c-0.935,0-1.529-0.747-1.529-1.761c0-1.848,1.364-3.806,3.686-3.806c0.506,0,1.067,0.088,1.43,0.209l-0.539,2.771
			c-0.176,0.925-0.253,1.87-0.231,2.465L104.696,171.889L104.696,171.889z M105.29,167.247c-0.132-0.033-0.33-0.077-0.638-0.077
			c-1.375,0-2.497,1.441-2.508,2.915c0,0.596,0.209,1.179,0.913,1.179c0.759,0,1.661-0.99,1.925-2.409L105.29,167.247z"/>
		<path d="M109.293,165.134l-0.275,1.431h1.276l-0.143,0.716h-1.276l-0.495,2.585c-0.055,0.297-0.099,0.572-0.099,0.858
			c0,0.318,0.154,0.506,0.506,0.506c0.154,0,0.308-0.012,0.429-0.033l-0.044,0.716c-0.165,0.065-0.44,0.099-0.704,0.099
			c-0.814,0-1.122-0.494-1.122-1.033c0-0.309,0.033-0.616,0.11-1.001l0.528-2.695h-0.77l0.143-0.716h0.759l0.231-1.199
			L109.293,165.134z"/>
		<path d="M112.35,171.889l1.023-5.325h0.913l-1.023,5.325H112.35z M113.539,165.08c0-0.353,0.275-0.616,0.605-0.616
			s0.539,0.242,0.539,0.572c-0.012,0.362-0.265,0.615-0.616,0.615C113.748,165.651,113.539,165.41,113.539,165.08z"/>
		<path d="M114.914,170.965c0.254,0.153,0.716,0.33,1.145,0.33c0.616,0,1.013-0.396,1.013-0.869c0-0.418-0.188-0.672-0.737-0.979
			c-0.616-0.341-0.957-0.814-0.957-1.354c0-0.935,0.803-1.648,1.925-1.648c0.484,0,0.913,0.132,1.111,0.264l-0.253,0.693
			c-0.188-0.11-0.528-0.242-0.924-0.242c-0.551,0-0.946,0.341-0.946,0.803c0,0.386,0.253,0.627,0.726,0.893
			c0.595,0.341,1.001,0.803,1.001,1.396c0,1.123-0.913,1.75-2.035,1.75c-0.572,0-1.078-0.177-1.32-0.363L114.914,170.965z"/>
		<path d="M124.506,171.889c0-0.319,0.055-0.825,0.121-1.375h-0.022c-0.583,1.1-1.31,1.495-2.068,1.495
			c-0.935,0-1.529-0.747-1.529-1.761c0-1.848,1.364-3.806,3.686-3.806c0.506,0,1.067,0.088,1.431,0.209l-0.539,2.771
			c-0.177,0.925-0.253,1.87-0.231,2.465L124.506,171.889L124.506,171.889z M125.1,167.247c-0.132-0.033-0.33-0.077-0.638-0.077
			c-1.376,0-2.498,1.441-2.509,2.915c0,0.596,0.209,1.179,0.913,1.179c0.759,0,1.661-0.99,1.926-2.409L125.1,167.247z"/>
		<path d="M126.761,170.965c0.253,0.153,0.715,0.33,1.144,0.33c0.616,0,1.013-0.396,1.013-0.869c0-0.418-0.188-0.672-0.737-0.979
			c-0.616-0.341-0.957-0.814-0.957-1.354c0-0.935,0.803-1.648,1.925-1.648c0.484,0,0.913,0.132,1.111,0.264l-0.253,0.693
			c-0.188-0.11-0.528-0.242-0.924-0.242c-0.551,0-0.946,0.341-0.946,0.803c0,0.386,0.253,0.627,0.726,0.893
			c0.595,0.341,1.001,0.803,1.001,1.396c0,1.123-0.913,1.75-2.035,1.75c-0.572,0-1.078-0.177-1.32-0.363L126.761,170.965z"/>
		<path d="M130.863,170.965c0.254,0.153,0.716,0.33,1.145,0.33c0.616,0,1.013-0.396,1.013-0.869c0-0.418-0.188-0.672-0.737-0.979
			c-0.616-0.341-0.957-0.814-0.957-1.354c0-0.935,0.803-1.648,1.925-1.648c0.484,0,0.913,0.132,1.111,0.264l-0.253,0.693
			c-0.188-0.11-0.528-0.242-0.924-0.242c-0.551,0-0.946,0.341-0.946,0.803c0,0.386,0.253,0.627,0.726,0.893
			c0.595,0.341,1.001,0.803,1.001,1.396c0,1.123-0.913,1.75-2.035,1.75c-0.572,0-1.078-0.177-1.32-0.363L130.863,170.965z"/>
		<path d="M138.761,171.582c-0.396,0.23-1.045,0.418-1.76,0.418c-1.408,0-2.024-0.957-2.024-2.135c0-1.606,1.188-3.421,2.904-3.421
			c1.012,0,1.562,0.604,1.562,1.363c0,1.396-1.573,1.771-3.543,1.737c-0.044,0.231-0.011,0.728,0.11,1.014
			c0.209,0.473,0.638,0.715,1.188,0.715c0.628,0,1.101-0.198,1.431-0.374L138.761,171.582z M137.75,167.159
			c-0.869,0-1.519,0.847-1.738,1.683c1.43,0.013,2.552-0.176,2.552-1.001C138.563,167.401,138.233,167.159,137.75,167.159z"/>
		<path d="M139.949,170.965c0.254,0.153,0.716,0.33,1.145,0.33c0.616,0,1.013-0.396,1.013-0.869c0-0.418-0.188-0.672-0.737-0.979
			c-0.616-0.341-0.957-0.814-0.957-1.354c0-0.935,0.803-1.648,1.925-1.648c0.484,0,0.913,0.132,1.111,0.264l-0.253,0.693
			c-0.188-0.11-0.528-0.242-0.924-0.242c-0.551,0-0.946,0.341-0.946,0.803c0,0.386,0.253,0.627,0.726,0.893
			c0.595,0.341,1.001,0.803,1.001,1.396c0,1.123-0.913,1.75-2.035,1.75c-0.572,0-1.078-0.177-1.32-0.363L139.949,170.965z"/>
		<path d="M144.052,170.965c0.253,0.153,0.715,0.33,1.144,0.33c0.616,0,1.013-0.396,1.013-0.869c0-0.418-0.188-0.672-0.737-0.979
			c-0.616-0.341-0.957-0.814-0.957-1.354c0-0.935,0.803-1.648,1.925-1.648c0.483,0,0.913,0.132,1.11,0.264l-0.252,0.693
			c-0.188-0.11-0.528-0.242-0.924-0.242c-0.551,0-0.946,0.341-0.946,0.803c0,0.386,0.253,0.627,0.726,0.893
			c0.596,0.341,1.001,0.803,1.001,1.396c0,1.123-0.913,1.75-2.035,1.75c-0.572,0-1.078-0.177-1.32-0.363L144.052,170.965z"/>
		<path d="M151.951,171.582c-0.396,0.23-1.046,0.418-1.761,0.418c-1.407,0-2.024-0.957-2.024-2.135c0-1.606,1.188-3.421,2.904-3.421
			c1.012,0,1.562,0.604,1.562,1.363c0,1.396-1.573,1.771-3.543,1.737c-0.045,0.231-0.012,0.728,0.109,1.014
			c0.209,0.473,0.639,0.715,1.188,0.715c0.628,0,1.101-0.198,1.431-0.374L151.951,171.582z M150.938,167.159
			c-0.869,0-1.519,0.847-1.737,1.683c1.43,0.013,2.551-0.176,2.551-1.001C151.751,167.401,151.421,167.159,150.938,167.159z"/>
		<path d="M158.759,164.078l-1.166,6.128c-0.11,0.551-0.198,1.167-0.23,1.685h-0.837l0.144-1.057h-0.021
			c-0.482,0.759-1.154,1.178-1.914,1.178c-1.033,0-1.595-0.849-1.595-1.938c0-1.893,1.407-3.63,3.289-3.63
			c0.341,0,0.715,0.076,0.946,0.187l0.473-2.553H158.759z M157.23,167.401c-0.188-0.121-0.495-0.221-0.88-0.221
			c-1.276,0-2.267,1.354-2.267,2.771c0,0.639,0.221,1.311,1.002,1.311c0.703,0,1.551-0.805,1.781-2.003L157.23,167.401z"/>
		<path d="M160.871,171.889l1.022-5.325h0.913l-1.023,5.325H160.871z M162.058,165.08c0-0.353,0.275-0.616,0.605-0.616
			s0.539,0.242,0.539,0.572c-0.013,0.362-0.266,0.615-0.617,0.615C162.267,165.651,162.058,165.41,162.058,165.08z"/>
		<path d="M163.389,171.889l0.716-3.773c0.121-0.594,0.188-1.111,0.253-1.552h0.813l-0.133,1.046h0.022
			c0.474-0.748,1.188-1.166,1.969-1.166c0.64,0,1.354,0.362,1.354,1.484c0,0.23-0.045,0.571-0.1,0.857l-0.595,3.104h-0.913
			l0.583-3.069c0.044-0.209,0.077-0.462,0.077-0.683c0-0.539-0.209-0.936-0.836-0.936c-0.648,0-1.573,0.781-1.814,2.103
			l-0.484,2.585H163.389L163.389,171.889z"/>
		<path d="M173.653,165.134l-0.274,1.431h1.275l-0.143,0.716h-1.276l-0.495,2.585c-0.055,0.297-0.099,0.572-0.099,0.858
			c0,0.318,0.153,0.506,0.506,0.506c0.153,0,0.308-0.012,0.429-0.033l-0.043,0.716c-0.166,0.065-0.439,0.099-0.705,0.099
			c-0.813,0-1.121-0.494-1.121-1.033c0-0.309,0.033-0.616,0.109-1.001l0.527-2.695h-0.77l0.143-0.716h0.76l0.23-1.199
			L173.653,165.134z"/>
		<path d="M174.708,171.889l1.484-7.812h0.913l-0.66,3.433h0.022c0.451-0.647,1.1-1.065,1.902-1.065c0.604,0,1.32,0.374,1.32,1.43
			c0,0.286-0.033,0.627-0.088,0.902l-0.596,3.113h-0.912l0.595-3.069c0.032-0.198,0.065-0.44,0.065-0.737
			c0-0.495-0.23-0.88-0.825-0.88c-0.704,0-1.595,0.825-1.815,2.024l-0.494,2.662H174.708z"/>
		<path d="M184.421,171.582c-0.396,0.23-1.045,0.418-1.76,0.418c-1.408,0-2.024-0.957-2.024-2.135c0-1.606,1.188-3.421,2.903-3.421
			c1.013,0,1.562,0.604,1.562,1.363c0,1.396-1.573,1.771-3.543,1.737c-0.044,0.231-0.012,0.728,0.109,1.014
			c0.209,0.473,0.639,0.715,1.188,0.715c0.628,0,1.101-0.198,1.431-0.374L184.421,171.582z M183.41,167.159
			c-0.869,0-1.519,0.847-1.738,1.683c1.431,0.013,2.553-0.176,2.553-1.001C184.223,167.401,183.893,167.159,183.41,167.159z"/>
		<path d="M187.566,171.889l1.023-5.325h0.912l-1.022,5.325H187.566z M188.753,165.08c0-0.353,0.275-0.616,0.605-0.616
			s0.539,0.242,0.539,0.572c-0.012,0.362-0.266,0.615-0.615,0.615C188.962,165.651,188.753,165.41,188.753,165.08z"/>
		<path d="M190.085,171.889l0.715-3.773c0.121-0.594,0.188-1.111,0.254-1.552h0.812l-0.132,1.046h0.022
			c0.473-0.748,1.188-1.166,1.969-1.166c0.639,0,1.354,0.362,1.354,1.484c0,0.23-0.043,0.571-0.099,0.857l-0.595,3.104h-0.913
			l0.583-3.069c0.044-0.209,0.076-0.462,0.076-0.683c0-0.539-0.209-0.936-0.836-0.936c-0.648,0-1.572,0.781-1.814,2.103
			l-0.484,2.585H190.085L190.085,171.889z"/>
		<path d="M201.625,164.078l-1.166,6.128c-0.109,0.551-0.197,1.167-0.23,1.685h-0.836l0.145-1.057h-0.022
			c-0.483,0.759-1.155,1.178-1.914,1.178c-1.034,0-1.597-0.849-1.597-1.938c0-1.893,1.408-3.63,3.291-3.63
			c0.34,0,0.715,0.076,0.945,0.187l0.473-2.553H201.625z M200.096,167.401c-0.187-0.121-0.495-0.221-0.88-0.221
			c-1.276,0-2.268,1.354-2.268,2.771c0,0.639,0.221,1.311,1.002,1.311c0.704,0,1.551-0.805,1.782-2.003L200.096,167.401z"/>
		<path d="M205.574,171.582c-0.396,0.23-1.045,0.418-1.76,0.418c-1.408,0-2.023-0.957-2.023-2.135c0-1.606,1.188-3.421,2.903-3.421
			c1.013,0,1.562,0.604,1.562,1.363c0,1.396-1.572,1.771-3.543,1.737c-0.043,0.231-0.01,0.728,0.111,1.014
			c0.209,0.473,0.637,0.715,1.188,0.715c0.628,0,1.101-0.198,1.431-0.374L205.574,171.582z M204.562,167.159
			c-0.869,0-1.52,0.847-1.738,1.683c1.43,0.013,2.553-0.176,2.553-1.001C205.375,167.401,205.044,167.159,204.562,167.159z"/>
		<path d="M208.093,166.564l0.517,1.167c0.144,0.341,0.253,0.604,0.353,0.847h0.033c0.209-0.297,0.318-0.473,0.582-0.803
			l0.979-1.211h1.058l-2.246,2.597l1.256,2.729h-0.99l-0.539-1.199c-0.176-0.396-0.254-0.605-0.385-0.946h-0.022
			c-0.165,0.253-0.319,0.495-0.55,0.814l-1.078,1.331h-1.057l2.332-2.739l-1.231-2.586L208.093,166.564L208.093,166.564z"/>
		<path d="M212.152,171.373c0-0.407,0.297-0.737,0.691-0.737c0.375,0,0.617,0.286,0.617,0.648c0,0.407-0.287,0.727-0.705,0.727
			C212.393,172.01,212.152,171.724,212.152,171.373z M212.658,169.766c0.012-0.101,0.012-0.198,0.021-0.286
			c0.066-0.596,0.373-1.254,1.066-1.991c0.496-0.518,0.969-1.001,0.969-1.596c0-0.386-0.197-0.771-0.848-0.771
			c-0.406,0-0.781,0.109-1.089,0.309l-0.177-0.672c0.419-0.253,0.925-0.406,1.508-0.406c1.066,0,1.551,0.704,1.551,1.375
			c0,0.857-0.539,1.484-1.199,2.155c-0.549,0.562-0.791,1.014-0.869,1.573c-0.021,0.101-0.021,0.209-0.043,0.31H212.658
			L212.658,169.766z"/>
		<path d="M85.797,173.264v-0.551h129.687v0.551H85.797z"/>
	</g>
	<g>
		
			<rect x="145.896" y="179.82" transform="matrix(-0.7071 -0.7071 0.7071 -0.7071 126.6755 413.1118)" width="6.001" height="1.001"/>
	</g>
	<g>
		<rect x="152.298" y="177.468" transform="matrix(-0.7071 -0.7071 0.7071 -0.7071 133.5872 415.2677)" width="1" height="4.999"/>
	</g>
</g>
<g id="button-on">
	<rect x="80.854" y="159.629" fill="#FFFFFF" fill-opacity="0" width="140" height="27"/>
	<g>
		<path fill="#006480" d="M87.228,171.889l-0.363-7.415h0.924l0.154,4.443c0.033,0.957,0.011,1.464,0,1.938h0.022
			c0.176-0.484,0.352-0.968,0.77-1.881l2.046-4.5h0.979l0.154,4.269c0.033,0.957,0.033,1.606,0.022,2.091h0.022
			c0.22-0.639,0.44-1.231,0.726-1.902l1.991-4.456h0.957l-3.443,7.415h-0.958l-0.198-4.215c-0.033-0.868-0.022-1.286,0.022-2.134
			h-0.033c-0.242,0.704-0.44,1.276-0.748,1.947l-2.068,4.4H87.228z"/>
		<path fill="#006480" d="M95.291,171.889l1.485-7.812h0.913l-0.66,3.433h0.022c0.451-0.647,1.1-1.065,1.903-1.065
			c0.605,0,1.32,0.374,1.32,1.43c0,0.286-0.033,0.627-0.088,0.902l-0.594,3.113h-0.913l0.594-3.069
			c0.033-0.198,0.066-0.44,0.066-0.737c0-0.495-0.231-0.88-0.825-0.88c-0.704,0-1.596,0.825-1.815,2.024l-0.495,2.662H95.291z"/>
		<path fill="#006480" d="M104.696,171.889c0-0.319,0.055-0.825,0.121-1.375h-0.022c-0.583,1.1-1.309,1.495-2.068,1.495
			c-0.935,0-1.529-0.747-1.529-1.761c0-1.848,1.364-3.806,3.686-3.806c0.506,0,1.067,0.088,1.43,0.209l-0.539,2.771
			c-0.176,0.925-0.253,1.87-0.231,2.465L104.696,171.889L104.696,171.889z M105.29,167.247c-0.132-0.033-0.33-0.077-0.638-0.077
			c-1.375,0-2.497,1.441-2.508,2.915c0,0.596,0.209,1.179,0.913,1.179c0.759,0,1.661-0.99,1.925-2.409L105.29,167.247z"/>
		<path fill="#006480" d="M109.293,165.134l-0.275,1.431h1.276l-0.143,0.716h-1.276l-0.495,2.585
			c-0.055,0.297-0.099,0.572-0.099,0.858c0,0.318,0.154,0.506,0.506,0.506c0.154,0,0.308-0.012,0.429-0.033l-0.044,0.716
			c-0.165,0.065-0.44,0.099-0.704,0.099c-0.814,0-1.122-0.494-1.122-1.033c0-0.309,0.033-0.616,0.11-1.001l0.528-2.695h-0.77
			l0.143-0.716h0.759l0.231-1.199L109.293,165.134z"/>
		<path fill="#006480" d="M112.35,171.889l1.023-5.325h0.913l-1.023,5.325H112.35z M113.539,165.08c0-0.353,0.275-0.616,0.605-0.616
			s0.539,0.242,0.539,0.572c-0.012,0.362-0.265,0.615-0.616,0.615C113.748,165.651,113.539,165.41,113.539,165.08z"/>
		<path fill="#006480" d="M114.914,170.965c0.254,0.153,0.716,0.33,1.145,0.33c0.616,0,1.013-0.396,1.013-0.869
			c0-0.418-0.188-0.672-0.737-0.979c-0.616-0.341-0.957-0.814-0.957-1.354c0-0.935,0.803-1.648,1.925-1.648
			c0.484,0,0.913,0.132,1.111,0.264l-0.253,0.693c-0.188-0.11-0.528-0.242-0.924-0.242c-0.551,0-0.946,0.341-0.946,0.803
			c0,0.386,0.253,0.627,0.726,0.893c0.595,0.341,1.001,0.803,1.001,1.396c0,1.123-0.913,1.75-2.035,1.75
			c-0.572,0-1.078-0.177-1.32-0.363L114.914,170.965z"/>
		<path fill="#006480" d="M124.506,171.889c0-0.319,0.055-0.825,0.121-1.375h-0.022c-0.583,1.1-1.31,1.495-2.068,1.495
			c-0.935,0-1.529-0.747-1.529-1.761c0-1.848,1.364-3.806,3.686-3.806c0.506,0,1.067,0.088,1.431,0.209l-0.539,2.771
			c-0.177,0.925-0.253,1.87-0.231,2.465L124.506,171.889L124.506,171.889z M125.1,167.247c-0.132-0.033-0.33-0.077-0.638-0.077
			c-1.376,0-2.498,1.441-2.509,2.915c0,0.596,0.209,1.179,0.913,1.179c0.759,0,1.661-0.99,1.926-2.409L125.1,167.247z"/>
		<path fill="#006480" d="M126.761,170.965c0.253,0.153,0.715,0.33,1.144,0.33c0.616,0,1.013-0.396,1.013-0.869
			c0-0.418-0.188-0.672-0.737-0.979c-0.616-0.341-0.957-0.814-0.957-1.354c0-0.935,0.803-1.648,1.925-1.648
			c0.484,0,0.913,0.132,1.111,0.264l-0.253,0.693c-0.188-0.11-0.528-0.242-0.924-0.242c-0.551,0-0.946,0.341-0.946,0.803
			c0,0.386,0.253,0.627,0.726,0.893c0.595,0.341,1.001,0.803,1.001,1.396c0,1.123-0.913,1.75-2.035,1.75
			c-0.572,0-1.078-0.177-1.32-0.363L126.761,170.965z"/>
		<path fill="#006480" d="M130.863,170.965c0.254,0.153,0.716,0.33,1.145,0.33c0.616,0,1.013-0.396,1.013-0.869
			c0-0.418-0.188-0.672-0.737-0.979c-0.616-0.341-0.957-0.814-0.957-1.354c0-0.935,0.803-1.648,1.925-1.648
			c0.484,0,0.913,0.132,1.111,0.264l-0.253,0.693c-0.188-0.11-0.528-0.242-0.924-0.242c-0.551,0-0.946,0.341-0.946,0.803
			c0,0.386,0.253,0.627,0.726,0.893c0.595,0.341,1.001,0.803,1.001,1.396c0,1.123-0.913,1.75-2.035,1.75
			c-0.572,0-1.078-0.177-1.32-0.363L130.863,170.965z"/>
		<path fill="#006480" d="M138.761,171.582c-0.396,0.23-1.045,0.418-1.76,0.418c-1.408,0-2.024-0.957-2.024-2.135
			c0-1.606,1.188-3.421,2.904-3.421c1.012,0,1.562,0.604,1.562,1.363c0,1.396-1.573,1.771-3.543,1.737
			c-0.044,0.231-0.011,0.728,0.11,1.014c0.209,0.473,0.638,0.715,1.188,0.715c0.628,0,1.101-0.198,1.431-0.374L138.761,171.582z
			 M137.75,167.159c-0.869,0-1.519,0.847-1.738,1.683c1.43,0.013,2.552-0.176,2.552-1.001
			C138.563,167.401,138.233,167.159,137.75,167.159z"/>
		<path fill="#006480" d="M139.949,170.965c0.254,0.153,0.716,0.33,1.145,0.33c0.616,0,1.013-0.396,1.013-0.869
			c0-0.418-0.188-0.672-0.737-0.979c-0.616-0.341-0.957-0.814-0.957-1.354c0-0.935,0.803-1.648,1.925-1.648
			c0.484,0,0.913,0.132,1.111,0.264l-0.253,0.693c-0.188-0.11-0.528-0.242-0.924-0.242c-0.551,0-0.946,0.341-0.946,0.803
			c0,0.386,0.253,0.627,0.726,0.893c0.595,0.341,1.001,0.803,1.001,1.396c0,1.123-0.913,1.75-2.035,1.75
			c-0.572,0-1.078-0.177-1.32-0.363L139.949,170.965z"/>
		<path fill="#006480" d="M144.052,170.965c0.253,0.153,0.715,0.33,1.144,0.33c0.616,0,1.013-0.396,1.013-0.869
			c0-0.418-0.188-0.672-0.737-0.979c-0.616-0.341-0.957-0.814-0.957-1.354c0-0.935,0.803-1.648,1.925-1.648
			c0.483,0,0.913,0.132,1.11,0.264l-0.252,0.693c-0.188-0.11-0.528-0.242-0.924-0.242c-0.551,0-0.946,0.341-0.946,0.803
			c0,0.386,0.253,0.627,0.726,0.893c0.596,0.341,1.001,0.803,1.001,1.396c0,1.123-0.913,1.75-2.035,1.75
			c-0.572,0-1.078-0.177-1.32-0.363L144.052,170.965z"/>
		<path fill="#006480" d="M151.951,171.582c-0.396,0.23-1.046,0.418-1.761,0.418c-1.407,0-2.024-0.957-2.024-2.135
			c0-1.606,1.188-3.421,2.904-3.421c1.012,0,1.562,0.604,1.562,1.363c0,1.396-1.573,1.771-3.543,1.737
			c-0.045,0.231-0.012,0.728,0.109,1.014c0.209,0.473,0.639,0.715,1.188,0.715c0.628,0,1.101-0.198,1.431-0.374L151.951,171.582z
			 M150.938,167.159c-0.869,0-1.519,0.847-1.737,1.683c1.43,0.013,2.551-0.176,2.551-1.001
			C151.751,167.401,151.421,167.159,150.938,167.159z"/>
		<path fill="#006480" d="M158.759,164.078l-1.166,6.128c-0.11,0.551-0.198,1.167-0.23,1.685h-0.837l0.144-1.057h-0.021
			c-0.482,0.759-1.154,1.178-1.914,1.178c-1.033,0-1.595-0.849-1.595-1.938c0-1.893,1.407-3.63,3.289-3.63
			c0.341,0,0.715,0.076,0.946,0.187l0.473-2.553H158.759z M157.23,167.401c-0.188-0.121-0.495-0.221-0.88-0.221
			c-1.276,0-2.267,1.354-2.267,2.771c0,0.639,0.221,1.311,1.002,1.311c0.703,0,1.551-0.805,1.781-2.003L157.23,167.401z"/>
		<path fill="#006480" d="M160.871,171.889l1.022-5.325h0.913l-1.023,5.325H160.871z M162.058,165.08
			c0-0.353,0.275-0.616,0.605-0.616s0.539,0.242,0.539,0.572c-0.013,0.362-0.266,0.615-0.617,0.615
			C162.267,165.651,162.058,165.41,162.058,165.08z"/>
		<path fill="#006480" d="M163.389,171.889l0.716-3.773c0.121-0.594,0.188-1.111,0.253-1.552h0.813l-0.133,1.046h0.022
			c0.474-0.748,1.188-1.166,1.969-1.166c0.64,0,1.354,0.362,1.354,1.484c0,0.23-0.045,0.571-0.1,0.857l-0.595,3.104h-0.913
			l0.583-3.069c0.044-0.209,0.077-0.462,0.077-0.683c0-0.539-0.209-0.936-0.836-0.936c-0.648,0-1.573,0.781-1.814,2.103
			l-0.484,2.585H163.389L163.389,171.889z"/>
		<path fill="#006480" d="M173.653,165.134l-0.274,1.431h1.275l-0.143,0.716h-1.276l-0.495,2.585
			c-0.055,0.297-0.099,0.572-0.099,0.858c0,0.318,0.153,0.506,0.506,0.506c0.153,0,0.308-0.012,0.429-0.033l-0.043,0.716
			c-0.166,0.065-0.439,0.099-0.705,0.099c-0.813,0-1.121-0.494-1.121-1.033c0-0.309,0.033-0.616,0.109-1.001l0.527-2.695h-0.77
			l0.143-0.716h0.76l0.23-1.199L173.653,165.134z"/>
		<path fill="#006480" d="M174.708,171.889l1.484-7.812h0.913l-0.66,3.433h0.022c0.451-0.647,1.1-1.065,1.902-1.065
			c0.604,0,1.32,0.374,1.32,1.43c0,0.286-0.033,0.627-0.088,0.902l-0.596,3.113h-0.912l0.595-3.069
			c0.032-0.198,0.065-0.44,0.065-0.737c0-0.495-0.23-0.88-0.825-0.88c-0.704,0-1.595,0.825-1.815,2.024l-0.494,2.662H174.708z"/>
		<path fill="#006480" d="M184.421,171.582c-0.396,0.23-1.045,0.418-1.76,0.418c-1.408,0-2.024-0.957-2.024-2.135
			c0-1.606,1.188-3.421,2.903-3.421c1.013,0,1.562,0.604,1.562,1.363c0,1.396-1.573,1.771-3.543,1.737
			c-0.044,0.231-0.012,0.728,0.109,1.014c0.209,0.473,0.639,0.715,1.188,0.715c0.628,0,1.101-0.198,1.431-0.374L184.421,171.582z
			 M183.41,167.159c-0.869,0-1.519,0.847-1.738,1.683c1.431,0.013,2.553-0.176,2.553-1.001
			C184.223,167.401,183.893,167.159,183.41,167.159z"/>
		<path fill="#006480" d="M187.566,171.889l1.023-5.325h0.912l-1.022,5.325H187.566z M188.753,165.08
			c0-0.353,0.275-0.616,0.605-0.616s0.539,0.242,0.539,0.572c-0.012,0.362-0.266,0.615-0.615,0.615
			C188.962,165.651,188.753,165.41,188.753,165.08z"/>
		<path fill="#006480" d="M190.085,171.889l0.715-3.773c0.121-0.594,0.188-1.111,0.254-1.552h0.812l-0.132,1.046h0.022
			c0.473-0.748,1.188-1.166,1.969-1.166c0.639,0,1.354,0.362,1.354,1.484c0,0.23-0.043,0.571-0.099,0.857l-0.595,3.104h-0.913
			l0.583-3.069c0.044-0.209,0.076-0.462,0.076-0.683c0-0.539-0.209-0.936-0.836-0.936c-0.648,0-1.572,0.781-1.814,2.103
			l-0.484,2.585H190.085L190.085,171.889z"/>
		<path fill="#006480" d="M201.625,164.078l-1.166,6.128c-0.109,0.551-0.197,1.167-0.23,1.685h-0.836l0.145-1.057h-0.022
			c-0.483,0.759-1.155,1.178-1.914,1.178c-1.034,0-1.597-0.849-1.597-1.938c0-1.893,1.408-3.63,3.291-3.63
			c0.34,0,0.715,0.076,0.945,0.187l0.473-2.553H201.625z M200.096,167.401c-0.187-0.121-0.495-0.221-0.88-0.221
			c-1.276,0-2.268,1.354-2.268,2.771c0,0.639,0.221,1.311,1.002,1.311c0.704,0,1.551-0.805,1.782-2.003L200.096,167.401z"/>
		<path fill="#006480" d="M205.574,171.582c-0.396,0.23-1.045,0.418-1.76,0.418c-1.408,0-2.023-0.957-2.023-2.135
			c0-1.606,1.188-3.421,2.903-3.421c1.013,0,1.562,0.604,1.562,1.363c0,1.396-1.572,1.771-3.543,1.737
			c-0.043,0.231-0.01,0.728,0.111,1.014c0.209,0.473,0.637,0.715,1.188,0.715c0.628,0,1.101-0.198,1.431-0.374L205.574,171.582z
			 M204.562,167.159c-0.869,0-1.52,0.847-1.738,1.683c1.43,0.013,2.553-0.176,2.553-1.001
			C205.375,167.401,205.044,167.159,204.562,167.159z"/>
		<path fill="#006480" d="M208.093,166.564l0.517,1.167c0.144,0.341,0.253,0.604,0.353,0.847h0.033
			c0.209-0.297,0.318-0.473,0.582-0.803l0.979-1.211h1.058l-2.246,2.597l1.256,2.729h-0.99l-0.539-1.199
			c-0.176-0.396-0.254-0.605-0.385-0.946h-0.022c-0.165,0.253-0.319,0.495-0.55,0.814l-1.078,1.331h-1.057l2.332-2.739l-1.231-2.586
			L208.093,166.564L208.093,166.564z"/>
		<path fill="#006480" d="M212.152,171.373c0-0.407,0.297-0.737,0.691-0.737c0.375,0,0.617,0.286,0.617,0.648
			c0,0.407-0.287,0.727-0.705,0.727C212.393,172.01,212.152,171.724,212.152,171.373z M212.658,169.766
			c0.012-0.101,0.012-0.198,0.021-0.286c0.066-0.596,0.373-1.254,1.066-1.991c0.496-0.518,0.969-1.001,0.969-1.596
			c0-0.386-0.197-0.771-0.848-0.771c-0.406,0-0.781,0.109-1.089,0.309l-0.177-0.672c0.419-0.253,0.925-0.406,1.508-0.406
			c1.066,0,1.551,0.704,1.551,1.375c0,0.857-0.539,1.484-1.199,2.155c-0.549,0.562-0.791,1.014-0.869,1.573
			c-0.021,0.101-0.021,0.209-0.043,0.31H212.658L212.658,169.766z"/>
		<path fill="#006480" d="M85.797,173.264v-0.551h129.687v0.551H85.797z"/>
	</g>
	<g>
		<line fill="none" x1="146.789" y1="178.203" x2="151.031" y2="182.445"/>
		
			<rect x="145.896" y="179.82" transform="matrix(-0.7071 -0.7071 0.7071 -0.7071 126.6755 413.1118)" fill="#006480" width="6.001" height="1.001"/>
	</g>
	<g>
		<line fill="none" x1="151.031" y1="181.738" x2="154.566" y2="178.203"/>
		
			<rect x="152.298" y="177.468" transform="matrix(-0.7071 -0.7071 0.7071 -0.7071 133.5872 415.2677)" fill="#006480" width="1" height="4.999"/>
	</g>
</g>
<g>
	<path d="M62.369,143.719c0-2.187,0-2.59-0.029-3.05c-0.029-0.489-0.144-0.72-0.619-0.82c-0.115-0.029-0.36-0.043-0.561-0.043
		c-0.159,0-0.245-0.028-0.245-0.129c0-0.101,0.101-0.129,0.316-0.129c0.763,0,1.669,0.043,1.957,0.043
		c0.705,0,1.266-0.043,1.755-0.043c2.604,0,3.065,1.396,3.065,2.158c0,1.18-0.676,1.885-1.468,2.519
		c1.18,0.402,2.619,1.424,2.619,3.107c0,1.54-1.194,3.137-3.842,3.137c-0.173,0-0.59-0.028-1.007-0.043
		c-0.432-0.028-0.863-0.043-1.079-0.043c-0.158,0-0.475,0-0.82,0.015c-0.331,0-0.705,0.028-0.993,0.028
		c-0.187,0-0.288-0.043-0.288-0.144c0-0.072,0.057-0.115,0.23-0.115c0.216,0,0.389-0.028,0.518-0.058
		c0.288-0.058,0.36-0.374,0.417-0.791c0.072-0.604,0.072-1.741,0.072-3.065V143.719z M64.096,143.964
		c0,0.115,0.043,0.145,0.101,0.159c0.13,0.028,0.346,0.043,0.676,0.043c0.475,0,0.792-0.058,1.036-0.273
		c0.374-0.302,0.59-0.82,0.59-1.525c0-0.964-0.561-2.23-1.798-2.23c-0.202,0-0.331,0-0.475,0.029
		c-0.101,0.029-0.129,0.086-0.129,0.245V143.964z M65.995,145.115c-0.302-0.216-0.633-0.316-1.194-0.345
		c-0.259-0.015-0.403-0.015-0.619-0.015c-0.058,0-0.086,0.028-0.086,0.101v3.41c0,0.95,0.043,1.194,0.504,1.382
		c0.388,0.158,0.719,0.172,1.05,0.172c0.647,0,1.741-0.345,1.741-1.842C67.391,147.087,67.089,145.878,65.995,145.115z"/>
	<path d="M73.72,146.698c0-0.777-0.144-1.094-0.331-1.511c-0.101-0.23-2.029-3.396-2.533-4.144c-0.36-0.533-0.719-0.892-0.993-1.05
		c-0.187-0.101-0.432-0.188-0.604-0.188c-0.115,0-0.216-0.028-0.216-0.129c0-0.086,0.101-0.129,0.273-0.129
		c0.259,0,1.338,0.043,1.813,0.043c0.302,0,0.892-0.043,1.54-0.043c0.144,0,0.216,0.043,0.216,0.129s-0.101,0.101-0.316,0.158
		c-0.129,0.029-0.202,0.144-0.202,0.259s0.072,0.288,0.173,0.489c0.202,0.432,2.216,3.899,2.446,4.302
		c0.144-0.345,1.957-3.51,2.158-3.957c0.144-0.316,0.202-0.561,0.202-0.748c0-0.144-0.058-0.302-0.302-0.36
		c-0.13-0.029-0.259-0.058-0.259-0.144c0-0.101,0.072-0.129,0.245-0.129c0.475,0,0.936,0.043,1.353,0.043
		c0.317,0,1.266-0.043,1.54-0.043c0.159,0,0.259,0.029,0.259,0.115c0,0.101-0.115,0.144-0.273,0.144
		c-0.144,0-0.417,0.058-0.633,0.173c-0.302,0.144-0.46,0.316-0.777,0.705c-0.475,0.576-2.489,3.957-2.749,4.576
		c-0.216,0.518-0.216,0.964-0.216,1.438v1.18c0,0.23,0,0.835,0.043,1.439c0.029,0.417,0.158,0.733,0.59,0.791
		c0.202,0.029,0.518,0.058,0.719,0.058c0.159,0,0.23,0.043,0.23,0.115c0,0.101-0.115,0.144-0.302,0.144
		c-0.906,0-1.813-0.043-2.202-0.043c-0.359,0-1.266,0.043-1.798,0.043c-0.202,0-0.316-0.028-0.316-0.144
		c0-0.072,0.072-0.115,0.23-0.115c0.202,0,0.374-0.028,0.503-0.058c0.288-0.058,0.417-0.374,0.446-0.791
		c0.043-0.604,0.043-1.209,0.043-1.439V146.698z"/>
	<path d="M84.278,147.547c-0.173,0-0.36-0.058-0.36-0.216c0-0.172,0.129-0.302,0.187-0.374c0.101-0.115,5.468-7.208,5.583-7.353
		c0.115-0.129,0.23-0.259,0.374-0.259c0.129,0,0.173,0.101,0.173,0.245c0,0.216-0.015,1.223-0.015,2.159v4.676h1.108
		c0.389,0,0.576-0.144,0.662-0.144c0.072,0,0.129,0.058,0.129,0.173c0,0.129-0.144,0.719-0.245,0.906
		c-0.072,0.129-0.144,0.187-0.388,0.187h-1.267c0,0.461-0.014,1.108,0.043,1.741c0.043,0.446,0.129,0.705,0.604,0.806
		c0.202,0.044,0.504,0.058,0.648,0.058c0.072,0,0.129,0.043,0.129,0.145c0,0.101-0.072,0.129-0.23,0.129
		c-0.806,0-1.727-0.043-2.029-0.043c-0.403,0-1.18,0.043-1.971,0.043c-0.158,0-0.23-0.028-0.23-0.129
		c0-0.102,0.043-0.145,0.115-0.145c0.129,0,0.446-0.014,0.676-0.043c0.547-0.058,0.647-0.374,0.676-0.82
		c0.058-0.633,0.043-1.28,0.043-1.741H84.278z M88.696,141.978h-0.043c-0.331,0.475-2.719,3.799-3.208,4.446h3.252V141.978z"/>
	<path d="M100.765,144.352h0.072c0.489-0.532,2.59-2.676,3.007-3.166c0.403-0.475,0.72-0.834,0.72-1.079
		c0-0.158-0.058-0.259-0.202-0.288c-0.129-0.029-0.187-0.058-0.187-0.144c0-0.101,0.072-0.129,0.23-0.129
		c0.302,0,1.093,0.043,1.482,0.043c0.446,0,1.237-0.043,1.684-0.043c0.144,0,0.245,0.029,0.245,0.129
		c0,0.101-0.072,0.129-0.216,0.129c-0.202,0-0.562,0.058-0.834,0.159c-0.446,0.172-0.936,0.475-1.554,1.079
		c-0.446,0.432-2.619,2.59-3.108,3.108c0.518,0.677,3.338,3.712,3.899,4.245c0.633,0.604,1.28,1.252,2.058,1.554
		c0.432,0.173,0.719,0.216,0.892,0.216c0.101,0,0.187,0.028,0.187,0.115c0,0.101-0.072,0.144-0.345,0.144h-1.252
		c-0.432,0-0.691,0-0.993-0.028c-0.777-0.072-1.166-0.389-1.785-0.936c-0.633-0.562-3.468-3.885-3.77-4.303l-0.159-0.216h-0.072
		v1.31c0,1.324,0,2.461,0.043,3.079c0.029,0.403,0.159,0.72,0.518,0.777c0.202,0.029,0.518,0.058,0.705,0.058
		c0.115,0,0.187,0.043,0.187,0.115c0,0.101-0.115,0.144-0.273,0.144c-0.806,0-1.712-0.043-2.072-0.043
		c-0.331,0-1.237,0.043-1.813,0.043c-0.187,0-0.288-0.043-0.288-0.144c0-0.072,0.057-0.115,0.23-0.115
		c0.216,0,0.389-0.028,0.518-0.058c0.288-0.058,0.36-0.374,0.417-0.791c0.072-0.604,0.072-1.741,0.072-3.065v-2.532
		c0-2.187,0-2.59-0.029-3.05c-0.029-0.489-0.144-0.72-0.619-0.82c-0.115-0.029-0.36-0.043-0.562-0.043
		c-0.158,0-0.244-0.028-0.244-0.129c0-0.101,0.101-0.129,0.316-0.129c0.763,0,1.669,0.043,2.014,0.043
		c0.346,0,1.252-0.043,1.741-0.043c0.202,0,0.302,0.029,0.302,0.129c0,0.101-0.086,0.129-0.202,0.129
		c-0.144,0-0.23,0.015-0.403,0.043c-0.388,0.072-0.503,0.316-0.532,0.82c-0.029,0.46-0.029,0.863-0.029,3.05V144.352z"/>
	<path d="M110.058,143.719c0-2.187,0-2.59-0.029-3.05c-0.029-0.489-0.144-0.72-0.619-0.82c-0.115-0.029-0.36-0.043-0.561-0.043
		c-0.159,0-0.245-0.028-0.245-0.129c0-0.101,0.101-0.129,0.316-0.129c0.388,0,0.806,0.015,1.166,0.015
		c0.374,0.014,0.705,0.028,0.906,0.028c0.46,0,3.324,0,3.598-0.014c0.273-0.029,0.503-0.058,0.619-0.086
		c0.072-0.014,0.158-0.058,0.23-0.058c0.072,0,0.086,0.058,0.086,0.13c0,0.101-0.072,0.273-0.115,0.935
		c-0.014,0.144-0.043,0.777-0.072,0.95c-0.015,0.072-0.043,0.158-0.144,0.158c-0.101,0-0.129-0.072-0.129-0.201
		c0-0.101-0.014-0.346-0.086-0.518c-0.101-0.259-0.245-0.432-0.964-0.518c-0.245-0.029-1.755-0.058-2.043-0.058
		c-0.072,0-0.101,0.043-0.101,0.144v3.64c0,0.101,0.014,0.158,0.101,0.158c0.317,0,1.971,0,2.302-0.028
		c0.345-0.029,0.561-0.072,0.691-0.216c0.101-0.115,0.158-0.188,0.23-0.188c0.058,0,0.101,0.029,0.101,0.115
		s-0.058,0.316-0.115,1.051c-0.015,0.287-0.058,0.863-0.058,0.964c0,0.115,0,0.273-0.129,0.273c-0.101,0-0.13-0.058-0.13-0.13
		c-0.014-0.144-0.014-0.331-0.057-0.518c-0.072-0.288-0.273-0.504-0.806-0.562c-0.273-0.028-1.698-0.043-2.043-0.043
		c-0.072,0-0.086,0.058-0.086,0.144v1.137c0,0.489-0.015,1.813,0,2.23c0.029,0.993,0.259,1.209,1.727,1.209
		c0.374,0,0.979,0,1.353-0.173s0.547-0.475,0.647-1.064c0.029-0.158,0.058-0.216,0.158-0.216c0.115,0,0.115,0.114,0.115,0.259
		c0,0.331-0.115,1.31-0.187,1.597c-0.101,0.374-0.23,0.374-0.777,0.374c-1.079,0-1.871-0.028-2.489-0.043
		c-0.619-0.028-1.065-0.043-1.497-0.043c-0.158,0-0.475,0-0.82,0.015c-0.331,0-0.705,0.028-0.993,0.028
		c-0.187,0-0.288-0.043-0.288-0.144c0-0.072,0.057-0.115,0.23-0.115c0.216,0,0.389-0.028,0.518-0.058
		c0.288-0.058,0.36-0.374,0.417-0.791c0.072-0.604,0.072-1.741,0.072-3.065V143.719z"/>
	<path d="M120.933,146.698c0-0.777-0.144-1.094-0.331-1.511c-0.101-0.23-2.029-3.396-2.533-4.144
		c-0.36-0.533-0.719-0.892-0.993-1.05c-0.187-0.101-0.432-0.188-0.604-0.188c-0.115,0-0.216-0.028-0.216-0.129
		c0-0.086,0.101-0.129,0.273-0.129c0.259,0,1.338,0.043,1.813,0.043c0.302,0,0.892-0.043,1.54-0.043
		c0.144,0,0.216,0.043,0.216,0.129s-0.101,0.101-0.316,0.158c-0.129,0.029-0.202,0.144-0.202,0.259s0.072,0.288,0.173,0.489
		c0.201,0.432,2.216,3.899,2.446,4.302c0.144-0.345,1.957-3.51,2.158-3.957c0.144-0.316,0.201-0.561,0.201-0.748
		c0-0.144-0.057-0.302-0.302-0.36c-0.13-0.029-0.259-0.058-0.259-0.144c0-0.101,0.072-0.129,0.245-0.129
		c0.475,0,0.936,0.043,1.353,0.043c0.317,0,1.267-0.043,1.54-0.043c0.159,0,0.259,0.029,0.259,0.115
		c0,0.101-0.115,0.144-0.273,0.144c-0.144,0-0.417,0.058-0.633,0.173c-0.302,0.144-0.46,0.316-0.777,0.705
		c-0.475,0.576-2.489,3.957-2.749,4.576c-0.216,0.518-0.216,0.964-0.216,1.438v1.18c0,0.23,0,0.835,0.043,1.439
		c0.029,0.417,0.158,0.733,0.59,0.791c0.202,0.029,0.518,0.058,0.72,0.058c0.158,0,0.23,0.043,0.23,0.115
		c0,0.101-0.115,0.144-0.302,0.144c-0.906,0-1.813-0.043-2.202-0.043c-0.359,0-1.266,0.043-1.798,0.043
		c-0.202,0-0.316-0.028-0.316-0.144c0-0.072,0.072-0.115,0.23-0.115c0.202,0,0.374-0.028,0.503-0.058
		c0.288-0.058,0.417-0.374,0.446-0.791c0.043-0.604,0.043-1.209,0.043-1.439V146.698z"/>
	<path d="M133.492,149.057c-1.41-1.237-1.784-2.849-1.784-4.244c0-0.979,0.302-2.677,1.684-3.943
		c1.036-0.95,2.403-1.525,4.547-1.525c0.892,0,1.425,0.058,2.086,0.144c0.547,0.072,1.008,0.202,1.439,0.245
		c0.158,0.015,0.216,0.086,0.216,0.173c0,0.115-0.043,0.288-0.072,0.792c-0.028,0.475-0.015,1.266-0.043,1.554
		c-0.015,0.216-0.043,0.331-0.173,0.331c-0.115,0-0.144-0.115-0.144-0.316c-0.015-0.446-0.201-0.95-0.562-1.324
		c-0.475-0.503-1.597-0.892-2.921-0.892c-1.252,0-2.072,0.317-2.705,0.892c-1.05,0.964-1.324,2.331-1.324,3.727
		c0,3.425,2.604,5.123,4.533,5.123c1.28,0,2.058-0.144,2.633-0.806c0.245-0.273,0.432-0.69,0.489-0.95
		c0.043-0.229,0.072-0.287,0.188-0.287c0.101,0,0.129,0.101,0.129,0.216c0,0.172-0.173,1.424-0.316,1.913
		c-0.072,0.245-0.129,0.316-0.374,0.418c-0.575,0.229-1.669,0.33-2.59,0.33C136.456,150.626,134.801,150.194,133.492,149.057z"/>
	<path d="M145.792,146.756c-0.072,0-0.101,0.028-0.13,0.115l-0.776,1.971c-0.145,0.36-0.216,0.705-0.216,0.878
		c0,0.259,0.129,0.446,0.575,0.446h0.216c0.173,0,0.216,0.028,0.216,0.115c0,0.115-0.086,0.144-0.245,0.144
		c-0.46,0-1.079-0.043-1.524-0.043c-0.158,0-0.95,0.043-1.698,0.043c-0.188,0-0.273-0.028-0.273-0.144
		c0-0.087,0.058-0.115,0.173-0.115c0.129,0,0.331-0.015,0.446-0.028c0.661-0.087,0.935-0.576,1.223-1.296l3.611-8.921
		c0.173-0.417,0.26-0.576,0.403-0.576c0.13,0,0.216,0.13,0.359,0.46c0.346,0.792,2.647,6.547,3.568,8.734
		c0.547,1.295,0.965,1.496,1.267,1.568c0.216,0.043,0.432,0.058,0.604,0.058c0.115,0,0.187,0.015,0.187,0.115
		c0,0.115-0.129,0.144-0.661,0.144c-0.519,0-1.568,0-2.72-0.028c-0.259-0.015-0.432-0.015-0.432-0.115
		c0-0.087,0.058-0.115,0.201-0.13c0.101-0.028,0.201-0.158,0.13-0.331l-1.151-2.964c-0.029-0.072-0.072-0.101-0.144-0.101H145.792z
		 M148.727,146.036c0.071,0,0.086-0.043,0.071-0.086l-1.295-3.54c-0.015-0.058-0.028-0.129-0.071-0.129
		c-0.044,0-0.072,0.072-0.087,0.129l-1.323,3.525c-0.015,0.058,0,0.101,0.058,0.101H148.727z"/>
	<path d="M156.264,140.352l-2.144,0.058c-0.835,0.029-1.181,0.101-1.396,0.417c-0.144,0.216-0.216,0.388-0.244,0.503
		c-0.029,0.115-0.072,0.173-0.158,0.173c-0.101,0-0.13-0.072-0.13-0.23c0-0.23,0.273-1.54,0.303-1.655
		c0.043-0.187,0.086-0.273,0.173-0.273c0.114,0,0.259,0.144,0.618,0.173c0.417,0.043,0.964,0.072,1.439,0.072h5.697
		c0.461,0,0.777-0.043,0.993-0.072c0.216-0.043,0.331-0.072,0.389-0.072c0.101,0,0.115,0.086,0.115,0.302
		c0,0.302-0.043,1.295-0.043,1.669c-0.015,0.144-0.044,0.23-0.13,0.23c-0.115,0-0.144-0.072-0.158-0.288l-0.015-0.158
		c-0.028-0.374-0.417-0.777-1.698-0.806l-1.812-0.043v5.899c0,1.324,0,2.461,0.072,3.079c0.043,0.403,0.129,0.72,0.561,0.777
		c0.202,0.029,0.519,0.058,0.734,0.058c0.158,0,0.229,0.043,0.229,0.115c0,0.101-0.114,0.144-0.273,0.144
		c-0.949,0-1.855-0.043-2.259-0.043c-0.331,0-1.237,0.043-1.812,0.043c-0.188,0-0.288-0.043-0.288-0.144
		c0-0.072,0.058-0.115,0.23-0.115c0.216,0,0.389-0.028,0.518-0.058c0.288-0.058,0.374-0.374,0.417-0.791
		c0.072-0.604,0.072-1.741,0.072-3.065V140.352z"/>
	<path d="M164.564,143.719c0-2.187,0-2.59-0.028-3.05c-0.028-0.489-0.144-0.72-0.619-0.82c-0.114-0.029-0.359-0.043-0.561-0.043
		c-0.158,0-0.245-0.028-0.245-0.129c0-0.101,0.101-0.129,0.316-0.129c0.389,0,0.807,0.015,1.166,0.015
		c0.374,0.014,0.705,0.028,0.906,0.028c0.461,0,3.324,0,3.598-0.014c0.273-0.029,0.503-0.058,0.618-0.086
		c0.072-0.014,0.158-0.058,0.23-0.058s0.087,0.058,0.087,0.13c0,0.101-0.072,0.273-0.115,0.935c-0.015,0.144-0.044,0.777-0.072,0.95
		c-0.015,0.072-0.043,0.158-0.144,0.158c-0.102,0-0.13-0.072-0.13-0.201c0-0.101-0.015-0.346-0.086-0.518
		c-0.102-0.259-0.245-0.432-0.965-0.518c-0.244-0.029-1.755-0.058-2.043-0.058c-0.072,0-0.101,0.043-0.101,0.144v3.64
		c0,0.101,0.015,0.158,0.101,0.158c0.316,0,1.972,0,2.303-0.028c0.345-0.029,0.561-0.072,0.69-0.216
		c0.101-0.115,0.158-0.188,0.23-0.188c0.058,0,0.101,0.029,0.101,0.115s-0.058,0.316-0.115,1.051
		c-0.015,0.287-0.058,0.863-0.058,0.964c0,0.115,0,0.273-0.13,0.273c-0.101,0-0.129-0.058-0.129-0.13
		c-0.015-0.144-0.015-0.331-0.058-0.518c-0.072-0.288-0.273-0.504-0.806-0.562c-0.273-0.028-1.698-0.043-2.044-0.043
		c-0.071,0-0.086,0.058-0.086,0.144v1.137c0,0.489-0.015,1.813,0,2.23c0.028,0.993,0.259,1.209,1.727,1.209
		c0.374,0,0.979,0,1.353-0.173s0.547-0.475,0.647-1.064c0.029-0.158,0.058-0.216,0.158-0.216c0.115,0,0.115,0.114,0.115,0.259
		c0,0.331-0.115,1.31-0.187,1.597c-0.102,0.374-0.23,0.374-0.777,0.374c-1.079,0-1.871-0.028-2.489-0.043
		c-0.619-0.028-1.064-0.043-1.497-0.043c-0.158,0-0.475,0-0.819,0.015c-0.331,0-0.705,0.028-0.993,0.028
		c-0.188,0-0.288-0.043-0.288-0.144c0-0.072,0.058-0.115,0.23-0.115c0.216,0,0.389-0.028,0.518-0.058
		c0.288-0.058,0.36-0.374,0.418-0.791c0.071-0.604,0.071-1.741,0.071-3.065V143.719z"/>
	<path d="M182.39,149.461c0,0.389-0.015,0.417-0.187,0.518c-0.936,0.489-2.346,0.647-3.468,0.647c-3.525,0-6.648-1.669-6.648-5.64
		c0-2.303,1.194-3.914,2.504-4.706c1.382-0.834,2.662-0.936,3.871-0.936c0.992,0,2.259,0.173,2.547,0.23
		c0.302,0.058,0.806,0.144,1.137,0.158c0.173,0.015,0.201,0.072,0.201,0.173c0,0.158-0.101,0.561-0.101,2.36
		c0,0.23-0.043,0.302-0.158,0.302c-0.101,0-0.13-0.072-0.145-0.187c-0.043-0.331-0.114-0.791-0.489-1.194
		c-0.432-0.46-1.582-1.122-3.208-1.122c-0.792,0-1.842,0.058-2.85,0.892c-0.806,0.676-1.323,1.755-1.323,3.525
		c0,3.094,1.971,5.41,5.007,5.41c0.374,0,0.878,0,1.224-0.158c0.216-0.101,0.273-0.288,0.273-0.532v-1.353
		c0-0.72,0-1.267-0.015-1.698c-0.015-0.489-0.144-0.72-0.619-0.82c-0.115-0.028-0.359-0.043-0.561-0.043
		c-0.13,0-0.216-0.028-0.216-0.115c0-0.115,0.101-0.144,0.302-0.144c0.748,0,1.655,0.043,2.087,0.043
		c0.445,0,1.208-0.043,1.684-0.043c0.187,0,0.287,0.028,0.287,0.144c0,0.087-0.086,0.115-0.187,0.115
		c-0.115,0-0.216,0.015-0.389,0.043c-0.389,0.072-0.532,0.316-0.547,0.82c-0.015,0.432-0.015,1.008-0.015,1.727V149.461z"/>
	<path d="M184.833,144.986c0-2.461,1.626-5.641,5.943-5.641c3.583,0,5.812,2.086,5.812,5.381c0,3.296-2.302,5.899-5.957,5.899
		C186.503,150.626,184.833,147.533,184.833,144.986z M194.576,145.26c0-3.224-1.856-5.224-4.217-5.224
		c-1.654,0-3.539,0.921-3.539,4.504c0,2.993,1.654,5.367,4.417,5.367C192.245,149.907,194.576,149.418,194.576,145.26z"/>
	<path d="M199.593,143.719c0-2.187,0-2.59-0.028-3.05c-0.028-0.489-0.144-0.72-0.619-0.82c-0.114-0.029-0.359-0.043-0.561-0.043
		c-0.158,0-0.245-0.028-0.245-0.129c0-0.101,0.101-0.129,0.316-0.129c0.763,0,1.67,0.043,1.972,0.043
		c0.489,0,1.583-0.043,2.029-0.043c0.906,0,1.87,0.086,2.647,0.619c0.402,0.273,0.979,1.007,0.979,1.971
		c0,1.065-0.446,2.043-1.899,3.224c1.28,1.611,2.273,2.892,3.122,3.784c0.806,0.834,1.396,0.936,1.611,0.979
		c0.158,0.028,0.288,0.043,0.403,0.043s0.173,0.043,0.173,0.115c0,0.115-0.101,0.144-0.273,0.144h-1.367
		c-0.806,0-1.166-0.071-1.54-0.273c-0.618-0.331-1.165-1.007-1.971-2.115c-0.576-0.791-1.237-1.77-1.425-1.985
		c-0.072-0.086-0.158-0.101-0.259-0.101l-1.252-0.029c-0.072,0-0.115,0.029-0.115,0.115v0.201c0,1.339,0,2.476,0.072,3.08
		c0.043,0.417,0.129,0.733,0.561,0.791c0.216,0.029,0.533,0.058,0.705,0.058c0.115,0,0.173,0.043,0.173,0.115
		c0,0.101-0.101,0.144-0.287,0.144c-0.835,0-1.899-0.043-2.115-0.043c-0.273,0-1.181,0.043-1.756,0.043
		c-0.188,0-0.288-0.043-0.288-0.144c0-0.072,0.058-0.115,0.23-0.115c0.216,0,0.389-0.028,0.518-0.058
		c0.288-0.058,0.36-0.374,0.418-0.791c0.071-0.604,0.071-1.741,0.071-3.065V143.719z M201.292,144.856
		c0,0.158,0.029,0.216,0.13,0.259c0.302,0.101,0.733,0.145,1.094,0.145c0.575,0,0.762-0.058,1.021-0.245
		c0.432-0.316,0.849-0.979,0.849-2.158c0-2.043-1.353-2.633-2.201-2.633c-0.36,0-0.619,0.015-0.763,0.058
		c-0.101,0.029-0.13,0.086-0.13,0.202V144.856z"/>
	<path d="M210.455,143.719c0-2.187,0-2.59-0.028-3.05c-0.028-0.489-0.173-0.734-0.489-0.806c-0.158-0.043-0.346-0.058-0.518-0.058
		c-0.145,0-0.23-0.028-0.23-0.144c0-0.086,0.115-0.115,0.345-0.115c0.547,0,1.454,0.043,1.871,0.043
		c0.359,0,1.209-0.043,1.755-0.043c0.188,0,0.303,0.029,0.303,0.115c0,0.115-0.086,0.144-0.23,0.144
		c-0.144,0-0.259,0.015-0.432,0.043c-0.389,0.072-0.504,0.316-0.532,0.82c-0.028,0.46-0.028,0.863-0.028,3.05v2.532
		c0,1.396,0,2.532,0.057,3.151c0.044,0.389,0.145,0.647,0.576,0.705c0.201,0.029,0.518,0.058,0.733,0.058
		c0.158,0,0.23,0.043,0.23,0.115c0,0.101-0.115,0.144-0.273,0.144c-0.949,0-1.856-0.043-2.245-0.043
		c-0.33,0-1.237,0.043-1.812,0.043c-0.188,0-0.288-0.043-0.288-0.144c0-0.072,0.058-0.115,0.23-0.115
		c0.216,0,0.389-0.028,0.518-0.058c0.288-0.058,0.375-0.302,0.418-0.72c0.071-0.604,0.071-1.741,0.071-3.137V143.719z"/>
	<path d="M216.957,143.719c0-2.187,0-2.59-0.028-3.05c-0.028-0.489-0.144-0.72-0.619-0.82c-0.114-0.029-0.359-0.043-0.561-0.043
		c-0.158,0-0.245-0.028-0.245-0.129c0-0.101,0.101-0.129,0.316-0.129c0.389,0,0.807,0.015,1.166,0.015
		c0.374,0.014,0.705,0.028,0.906,0.028c0.461,0,3.324,0,3.598-0.014c0.273-0.029,0.503-0.058,0.618-0.086
		c0.072-0.014,0.158-0.058,0.23-0.058s0.087,0.058,0.087,0.13c0,0.101-0.072,0.273-0.115,0.935c-0.015,0.144-0.044,0.777-0.072,0.95
		c-0.015,0.072-0.043,0.158-0.144,0.158c-0.102,0-0.13-0.072-0.13-0.201c0-0.101-0.015-0.346-0.086-0.518
		c-0.102-0.259-0.245-0.432-0.965-0.518c-0.244-0.029-1.755-0.058-2.043-0.058c-0.072,0-0.101,0.043-0.101,0.144v3.64
		c0,0.101,0.015,0.158,0.101,0.158c0.316,0,1.972,0,2.303-0.028c0.345-0.029,0.561-0.072,0.69-0.216
		c0.101-0.115,0.158-0.188,0.23-0.188c0.058,0,0.101,0.029,0.101,0.115s-0.058,0.316-0.115,1.051
		c-0.015,0.287-0.058,0.863-0.058,0.964c0,0.115,0,0.273-0.13,0.273c-0.101,0-0.129-0.058-0.129-0.13
		c-0.015-0.144-0.015-0.331-0.058-0.518c-0.072-0.288-0.273-0.504-0.806-0.562c-0.273-0.028-1.698-0.043-2.044-0.043
		c-0.071,0-0.086,0.058-0.086,0.144v1.137c0,0.489-0.015,1.813,0,2.23c0.028,0.993,0.259,1.209,1.727,1.209
		c0.374,0,0.979,0,1.353-0.173s0.547-0.475,0.647-1.064c0.029-0.158,0.058-0.216,0.158-0.216c0.115,0,0.115,0.114,0.115,0.259
		c0,0.331-0.115,1.31-0.187,1.597c-0.102,0.374-0.23,0.374-0.777,0.374c-1.079,0-1.871-0.028-2.489-0.043
		c-0.619-0.028-1.064-0.043-1.497-0.043c-0.158,0-0.475,0-0.819,0.015c-0.331,0-0.705,0.028-0.993,0.028
		c-0.188,0-0.288-0.043-0.288-0.144c0-0.072,0.058-0.115,0.23-0.115c0.216,0,0.389-0.028,0.518-0.058
		c0.288-0.058,0.36-0.374,0.418-0.791c0.071-0.604,0.071-1.741,0.071-3.065V143.719z"/>
	<path d="M225.257,150.252c-0.23-0.101-0.273-0.172-0.273-0.489c0-0.791,0.058-1.654,0.072-1.885
		c0.014-0.216,0.058-0.374,0.173-0.374c0.129,0,0.144,0.13,0.144,0.245c0,0.187,0.058,0.489,0.13,0.733
		c0.316,1.064,1.165,1.453,2.058,1.453c1.295,0,1.928-0.878,1.928-1.64c0-0.705-0.216-1.367-1.41-2.303l-0.662-0.518
		c-1.583-1.238-2.129-2.245-2.129-3.411c0-1.583,1.323-2.72,3.323-2.72c0.936,0,1.54,0.144,1.914,0.245
		c0.129,0.029,0.201,0.072,0.201,0.173c0,0.187-0.058,0.604-0.058,1.727c0,0.317-0.043,0.432-0.158,0.432
		c-0.101,0-0.144-0.086-0.144-0.259c0-0.129-0.072-0.576-0.374-0.95c-0.216-0.273-0.634-0.705-1.568-0.705
		c-1.065,0-1.713,0.619-1.713,1.482c0,0.662,0.331,1.166,1.525,2.072l0.403,0.302c1.74,1.31,2.359,2.303,2.359,3.67
		c0,0.834-0.316,1.827-1.353,2.503c-0.72,0.461-1.525,0.59-2.288,0.59C226.524,150.626,225.876,150.525,225.257,150.252z"/>
</g>
</svg>
