<?xml version="1.0" encoding="utf-8"?>
<!-- Generator: Adobe Illustrator 16.0.0, SVG Export Plug-In . SVG Version: 6.00 Build 0)  -->
<!DOCTYPE svg PUBLIC "-//W3C//DTD SVG 1.1//EN" "http://www.w3.org/Graphics/SVG/1.1/DTD/svg11.dtd">
<svg version="1.1" id="Layer_1" xmlns="http://www.w3.org/2000/svg" xmlns:xlink="http://www.w3.org/1999/xlink" x="0px" y="0px"
	 width="155px" height="48px" viewBox="0 0 155 48" enable-background="new 0 0 155 48" xml:space="preserve">
<g>
	<path d="M5.494,8.019C5.207,7.132,4.943,6.557,4.607,6.317C4.344,6.149,3.865,6.102,3.649,6.102c-0.24,0-0.383-0.024-0.383-0.216
		c0-0.168,0.191-0.215,0.527-0.215c1.246,0,2.563,0.071,2.779,0.071c0.216,0,1.27-0.071,2.659-0.071
		c0.335,0,0.503,0.071,0.503,0.215c0,0.191-0.192,0.216-0.431,0.216c-0.192,0-0.432,0-0.599,0.096
		C8.489,6.294,8.44,6.461,8.44,6.725c0,0.312,0.24,1.126,0.527,2.204c0.407,1.581,2.635,8.84,3.066,10.182h0.072l4.647-12.506
		c0.24-0.67,0.407-0.862,0.599-0.862c0.263,0,0.383,0.359,0.694,1.126l4.983,12.074h0.072c0.431-1.605,2.348-7.93,3.186-10.732
		c0.167-0.551,0.24-1.055,0.24-1.39c0-0.384-0.216-0.719-1.15-0.719c-0.24,0-0.408-0.071-0.408-0.216
		c0-0.168,0.192-0.215,0.551-0.215c1.27,0,2.276,0.071,2.491,0.071c0.168,0,1.198-0.071,1.989-0.071
		c0.263,0,0.431,0.047,0.431,0.191c0,0.168-0.12,0.239-0.335,0.239c-0.24,0-0.575,0.024-0.838,0.12
		c-0.575,0.215-0.838,1.174-1.342,2.539c-1.102,3.019-3.617,10.637-4.791,14.23c-0.264,0.838-0.383,1.125-0.695,1.125
		c-0.24,0-0.383-0.287-0.743-1.174l-4.983-12.025h-0.048c-0.455,1.222-3.642,9.727-4.671,11.93c-0.456,0.982-0.575,1.27-0.863,1.27
		c-0.239,0-0.335-0.264-0.551-0.886L5.494,8.019z"/>
	<path d="M33.623,12.618c0-3.642,0-4.312-0.048-5.079c-0.048-0.814-0.239-1.198-1.03-1.366c-0.191-0.047-0.599-0.071-0.934-0.071
		c-0.264,0-0.407-0.048-0.407-0.216s0.167-0.215,0.527-0.215c1.27,0,2.779,0.071,3.282,0.071c0.814,0,2.635-0.071,3.378-0.071
		c1.509,0,3.114,0.143,4.408,1.029c0.671,0.455,1.629,1.678,1.629,3.282c0,1.772-0.743,3.401-3.162,5.366
		c2.132,2.684,3.785,4.815,5.199,6.301c1.341,1.389,2.324,1.557,2.683,1.629c0.263,0.048,0.479,0.072,0.67,0.072
		c0.192,0,0.288,0.071,0.288,0.191c0,0.191-0.167,0.239-0.455,0.239h-2.276c-1.341,0-1.94-0.12-2.563-0.455
		c-1.03-0.551-1.94-1.677-3.282-3.521c-0.958-1.317-2.06-2.946-2.372-3.306c-0.12-0.145-0.264-0.168-0.431-0.168l-2.084-0.048
		c-0.12,0-0.191,0.048-0.191,0.191v0.335c0,2.229,0,4.121,0.12,5.127c0.072,0.695,0.215,1.223,0.934,1.318
		c0.359,0.047,0.887,0.096,1.174,0.096c0.192,0,0.288,0.071,0.288,0.191c0,0.168-0.167,0.239-0.479,0.239
		c-1.39,0-3.162-0.071-3.521-0.071c-0.455,0-1.964,0.071-2.923,0.071c-0.312,0-0.479-0.071-0.479-0.239
		c0-0.12,0.096-0.191,0.383-0.191c0.359,0,0.647-0.049,0.862-0.096c0.479-0.096,0.599-0.623,0.695-1.318
		c0.12-1.006,0.12-2.898,0.12-5.103V12.618z M36.45,14.511c0,0.264,0.048,0.359,0.215,0.431c0.503,0.168,1.222,0.239,1.821,0.239
		c0.958,0,1.27-0.096,1.701-0.406c0.719-0.527,1.414-1.63,1.414-3.594c0-3.402-2.252-4.385-3.665-4.385
		c-0.599,0-1.03,0.024-1.27,0.096C36.498,6.94,36.45,7.036,36.45,7.228V14.511z"/>
	<path d="M51.712,12.618c0-3.642,0-4.312-0.048-5.079c-0.048-0.814-0.288-1.222-0.814-1.342c-0.264-0.071-0.575-0.096-0.862-0.096
		c-0.24,0-0.383-0.048-0.383-0.239c0-0.145,0.191-0.191,0.575-0.191c0.911,0,2.42,0.071,3.114,0.071
		c0.599,0,2.013-0.071,2.923-0.071c0.312,0,0.503,0.047,0.503,0.191c0,0.191-0.144,0.239-0.383,0.239
		c-0.239,0-0.431,0.024-0.719,0.071C54.97,6.294,54.778,6.7,54.73,7.539c-0.048,0.767-0.048,1.438-0.048,5.079v4.216
		c0,2.323,0,4.216,0.096,5.247c0.072,0.646,0.24,1.078,0.958,1.174c0.335,0.047,0.862,0.096,1.222,0.096
		c0.264,0,0.383,0.071,0.383,0.191c0,0.168-0.192,0.239-0.455,0.239c-1.581,0-3.09-0.071-3.737-0.071
		c-0.551,0-2.06,0.071-3.019,0.071c-0.312,0-0.479-0.071-0.479-0.239c0-0.12,0.096-0.191,0.383-0.191
		c0.359,0,0.647-0.049,0.862-0.096c0.479-0.096,0.623-0.504,0.695-1.198c0.12-1.007,0.12-2.899,0.12-5.223V12.618z"/>
	<path d="M68.412,23.493c-0.383-0.167-0.455-0.287-0.455-0.814c0-1.316,0.096-2.754,0.12-3.138c0.024-0.359,0.096-0.622,0.288-0.622
		c0.215,0,0.238,0.215,0.238,0.406c0,0.312,0.097,0.814,0.217,1.223c0.526,1.771,1.939,2.419,3.426,2.419
		c2.155,0,3.209-1.462,3.209-2.731c0-1.174-0.359-2.275-2.348-3.832l-1.102-0.863c-2.635-2.061-3.545-3.736-3.545-5.678
		c0-2.635,2.203-4.527,5.533-4.527c1.557,0,2.563,0.24,3.187,0.407c0.216,0.048,0.335,0.12,0.335,0.288
		c0,0.311-0.096,1.006-0.096,2.874c0,0.527-0.072,0.719-0.264,0.719c-0.168,0-0.239-0.144-0.239-0.431
		c0-0.216-0.12-0.959-0.623-1.582c-0.359-0.455-1.054-1.174-2.61-1.174c-1.773,0-2.852,1.031-2.852,2.468
		c0,1.103,0.551,1.94,2.539,3.45l0.671,0.503c2.899,2.18,3.929,3.833,3.929,6.108c0,1.39-0.527,3.043-2.252,4.168
		c-1.197,0.768-2.539,0.982-3.809,0.982C70.52,24.116,69.442,23.949,68.412,23.493z"/>
	<path d="M84.033,21.505c-2.348-2.06-2.971-4.742-2.971-7.066c0-1.629,0.504-4.456,2.804-6.564c1.725-1.58,4.001-2.539,7.57-2.539
		c1.485,0,2.372,0.096,3.474,0.24c0.91,0.119,1.677,0.335,2.396,0.406c0.264,0.024,0.359,0.145,0.359,0.287
		c0,0.192-0.071,0.48-0.12,1.318c-0.048,0.791-0.023,2.107-0.072,2.588c-0.023,0.359-0.071,0.551-0.287,0.551
		c-0.191,0-0.239-0.191-0.239-0.527c-0.024-0.742-0.335-1.581-0.935-2.204c-0.791-0.839-2.659-1.485-4.863-1.485
		c-2.084,0-3.449,0.527-4.504,1.485c-1.748,1.604-2.203,3.881-2.203,6.204c0,5.702,4.336,8.529,7.546,8.529
		c2.132,0,3.426-0.24,4.384-1.342c0.407-0.455,0.719-1.15,0.814-1.581c0.072-0.384,0.12-0.479,0.312-0.479
		c0.168,0,0.216,0.168,0.216,0.359c0,0.287-0.287,2.372-0.527,3.187c-0.119,0.407-0.215,0.526-0.623,0.694
		c-0.958,0.384-2.778,0.551-4.312,0.551C88.968,24.116,86.213,23.397,84.033,21.505z"/>
	<path d="M100.23,14.726c0-4.096,2.707-9.391,9.895-9.391c5.965,0,9.678,3.474,9.678,8.959c0,5.486-3.833,9.822-9.918,9.822
		C103.009,24.116,100.23,18.966,100.23,14.726z M116.449,15.181c0-5.365-3.091-8.695-7.02-8.695c-2.755,0-5.893,1.533-5.893,7.498
		c0,4.982,2.755,8.936,7.354,8.936C112.568,22.919,116.449,22.104,116.449,15.181z"/>
	<path d="M124.813,12.618c0-3.642,0-4.312-0.048-5.079c-0.048-0.814-0.239-1.198-1.03-1.366c-0.191-0.047-0.599-0.071-0.934-0.071
		c-0.264,0-0.408-0.048-0.408-0.216s0.168-0.215,0.527-0.215c1.27,0,2.779,0.071,3.282,0.071c0.814,0,2.635-0.071,3.378-0.071
		c1.509,0,3.114,0.143,4.408,1.029c0.67,0.455,1.629,1.678,1.629,3.282c0,1.772-0.743,3.401-3.162,5.366
		c2.132,2.684,3.785,4.815,5.198,6.301c1.342,1.389,2.323,1.557,2.683,1.629c0.264,0.048,0.479,0.072,0.671,0.072
		c0.192,0,0.288,0.071,0.288,0.191c0,0.191-0.168,0.239-0.455,0.239h-2.276c-1.342,0-1.94-0.12-2.563-0.455
		c-1.03-0.551-1.94-1.677-3.282-3.521c-0.958-1.317-2.06-2.946-2.371-3.306c-0.12-0.145-0.264-0.168-0.432-0.168l-2.084-0.048
		c-0.12,0-0.191,0.048-0.191,0.191v0.335c0,2.229,0,4.121,0.119,5.127c0.072,0.695,0.216,1.223,0.935,1.318
		c0.359,0.047,0.887,0.096,1.174,0.096c0.191,0,0.288,0.071,0.288,0.191c0,0.168-0.168,0.239-0.479,0.239
		c-1.39,0-3.162-0.071-3.521-0.071c-0.455,0-1.965,0.071-2.923,0.071c-0.312,0-0.479-0.071-0.479-0.239
		c0-0.12,0.097-0.191,0.384-0.191c0.359,0,0.646-0.049,0.862-0.096c0.479-0.096,0.599-0.623,0.694-1.318
		c0.12-1.006,0.12-2.898,0.12-5.103V12.618z M127.64,14.511c0,0.264,0.048,0.359,0.216,0.431c0.503,0.168,1.222,0.239,1.82,0.239
		c0.958,0,1.27-0.096,1.701-0.406c0.719-0.527,1.413-1.63,1.413-3.594c0-3.402-2.252-4.385-3.665-4.385
		c-0.6,0-1.03,0.024-1.27,0.096c-0.168,0.049-0.216,0.145-0.216,0.336V14.511z"/>
	<path d="M142.902,12.618c0-3.642,0-4.312-0.048-5.079c-0.048-0.814-0.239-1.198-1.03-1.366c-0.191-0.047-0.599-0.071-0.935-0.071
		c-0.263,0-0.407-0.048-0.407-0.216s0.168-0.215,0.527-0.215c0.647,0,1.342,0.023,1.94,0.023c0.623,0.023,1.174,0.048,1.51,0.048
		c0.767,0,5.533,0,5.988-0.024c0.456-0.047,0.839-0.096,1.03-0.143c0.12-0.024,0.264-0.097,0.384-0.097
		c0.119,0,0.144,0.097,0.144,0.216c0,0.168-0.12,0.455-0.191,1.557c-0.024,0.24-0.072,1.294-0.12,1.582
		c-0.023,0.119-0.072,0.264-0.239,0.264c-0.168,0-0.216-0.12-0.216-0.336c0-0.168-0.024-0.574-0.144-0.862
		c-0.168-0.431-0.407-0.719-1.605-0.862c-0.407-0.049-2.923-0.096-3.401-0.096c-0.12,0-0.168,0.071-0.168,0.239v6.062
		c0,0.167,0.024,0.263,0.168,0.263c0.526,0,3.282,0,3.833-0.048c0.575-0.048,0.935-0.119,1.149-0.359
		c0.168-0.191,0.264-0.311,0.384-0.311c0.096,0,0.167,0.047,0.167,0.191c0,0.143-0.096,0.526-0.191,1.748
		c-0.023,0.479-0.096,1.438-0.096,1.605c0,0.191,0,0.455-0.216,0.455c-0.167,0-0.215-0.096-0.215-0.216
		c-0.024-0.239-0.024-0.551-0.097-0.862c-0.119-0.479-0.455-0.838-1.341-0.934c-0.455-0.049-2.827-0.072-3.402-0.072
		c-0.119,0-0.144,0.096-0.144,0.239v1.893c0,0.814-0.023,3.019,0,3.714c0.048,1.652,0.432,2.012,2.875,2.012
		c0.623,0,1.629,0,2.252-0.287s0.91-0.791,1.078-1.773c0.048-0.264,0.096-0.359,0.264-0.359c0.191,0,0.191,0.191,0.191,0.432
		c0,0.551-0.191,2.18-0.312,2.659c-0.168,0.622-0.384,0.622-1.294,0.622c-1.797,0-3.114-0.047-4.145-0.071
		c-1.03-0.048-1.772-0.071-2.491-0.071c-0.264,0-0.791,0-1.365,0.023c-0.552,0-1.174,0.048-1.653,0.048
		c-0.312,0-0.479-0.071-0.479-0.239c0-0.12,0.097-0.191,0.384-0.191c0.359,0,0.646-0.049,0.862-0.096
		c0.479-0.096,0.599-0.623,0.694-1.318c0.12-1.006,0.12-2.898,0.12-5.103V12.618z"/>
	<path d="M14.193,37.731c0-2.316,0-2.744-0.031-3.231c-0.03-0.519-0.152-0.763-0.655-0.868c-0.122-0.031-0.381-0.047-0.594-0.047
		c-0.168,0-0.259-0.029-0.259-0.137c0-0.106,0.106-0.137,0.335-0.137c0.808,0,1.768,0.045,2.073,0.045
		c0.747,0,1.342-0.045,1.86-0.045c2.759,0,3.247,1.479,3.247,2.286c0,1.25-0.717,1.997-1.555,2.667
		c1.25,0.428,2.774,1.51,2.774,3.293c0,1.631-1.265,3.323-4.07,3.323c-0.183,0-0.625-0.03-1.067-0.046
		c-0.457-0.03-0.915-0.045-1.143-0.045c-0.167,0-0.503,0-0.869,0.015c-0.351,0-0.747,0.03-1.052,0.03
		c-0.198,0-0.305-0.045-0.305-0.152c0-0.076,0.061-0.121,0.244-0.121c0.229,0,0.411-0.031,0.548-0.062
		c0.305-0.062,0.381-0.396,0.442-0.839c0.076-0.64,0.076-1.844,0.076-3.246V37.731z M16.022,37.991c0,0.121,0.046,0.152,0.107,0.168
		c0.137,0.029,0.366,0.045,0.716,0.045c0.503,0,0.838-0.061,1.098-0.289c0.396-0.32,0.625-0.869,0.625-1.616
		c0-1.021-0.595-2.362-1.906-2.362c-0.213,0-0.351,0-0.503,0.03c-0.106,0.03-0.137,0.091-0.137,0.259V37.991z M18.034,39.21
		c-0.32-0.229-0.671-0.335-1.265-0.365c-0.274-0.016-0.427-0.016-0.656-0.016c-0.061,0-0.091,0.031-0.091,0.107v3.612
		c0,1.006,0.046,1.265,0.534,1.464c0.412,0.167,0.762,0.182,1.113,0.182c0.686,0,1.844-0.365,1.844-1.951
		C19.513,41.299,19.193,40.019,18.034,39.21z"/>
	<path d="M26.224,40.888c0-0.824-0.152-1.159-0.351-1.602c-0.106-0.243-2.149-3.598-2.683-4.39
		c-0.381-0.563-0.762-0.945-1.052-1.112c-0.198-0.107-0.458-0.199-0.64-0.199c-0.122,0-0.229-0.029-0.229-0.137
		c0-0.092,0.107-0.137,0.29-0.137c0.274,0,1.418,0.045,1.921,0.045c0.32,0,0.945-0.045,1.631-0.045c0.153,0,0.229,0.045,0.229,0.137
		s-0.107,0.107-0.335,0.168c-0.137,0.03-0.213,0.152-0.213,0.274s0.076,0.305,0.183,0.519c0.214,0.457,2.348,4.131,2.592,4.557
		c0.152-0.365,2.073-3.719,2.286-4.191c0.153-0.336,0.214-0.594,0.214-0.793c0-0.152-0.061-0.32-0.32-0.381
		c-0.137-0.03-0.274-0.061-0.274-0.152c0-0.106,0.076-0.137,0.259-0.137c0.503,0,0.991,0.045,1.433,0.045
		c0.335,0,1.341-0.045,1.631-0.045c0.167,0,0.274,0.03,0.274,0.121c0,0.107-0.122,0.152-0.29,0.152c-0.152,0-0.442,0.062-0.67,0.184
		c-0.32,0.152-0.488,0.336-0.823,0.747c-0.503,0.609-2.637,4.192-2.912,4.847c-0.229,0.549-0.229,1.021-0.229,1.525v1.25
		c0,0.243,0,0.884,0.046,1.523c0.03,0.442,0.167,0.777,0.625,0.839c0.213,0.03,0.548,0.062,0.762,0.062
		c0.168,0,0.244,0.045,0.244,0.121c0,0.107-0.122,0.152-0.32,0.152c-0.96,0-1.92-0.045-2.332-0.045
		c-0.381,0-1.341,0.045-1.905,0.045c-0.213,0-0.335-0.03-0.335-0.152c0-0.076,0.076-0.121,0.244-0.121
		c0.213,0,0.396-0.031,0.534-0.062c0.305-0.062,0.442-0.396,0.473-0.839c0.045-0.64,0.045-1.28,0.045-1.523V40.888z"/>
	<path d="M39.309,37.731c0-2.316,0-2.744-0.031-3.231c-0.03-0.519-0.183-0.777-0.518-0.854c-0.167-0.046-0.366-0.062-0.549-0.062
		c-0.152,0-0.244-0.029-0.244-0.152c0-0.091,0.122-0.121,0.366-0.121c0.579,0,1.54,0.045,1.981,0.045
		c0.381,0,1.281-0.045,1.86-0.045c0.198,0,0.32,0.03,0.32,0.121c0,0.123-0.092,0.152-0.244,0.152s-0.274,0.016-0.457,0.047
		c-0.412,0.076-0.534,0.335-0.564,0.868c-0.03,0.487-0.03,0.915-0.03,3.231v2.684c0,1.479,0,2.683,0.061,3.338
		c0.046,0.412,0.152,0.686,0.61,0.747c0.213,0.03,0.548,0.062,0.777,0.062c0.167,0,0.244,0.045,0.244,0.121
		c0,0.107-0.122,0.152-0.29,0.152c-1.006,0-1.966-0.045-2.378-0.045c-0.351,0-1.311,0.045-1.921,0.045
		c-0.198,0-0.305-0.045-0.305-0.152c0-0.076,0.061-0.121,0.244-0.121c0.229,0,0.411-0.031,0.548-0.062
		c0.305-0.062,0.396-0.32,0.442-0.763c0.076-0.64,0.076-1.844,0.076-3.322V37.731z"/>
	<path d="M47.056,42.763c0.031,1.188,0.229,1.585,0.534,1.691c0.259,0.092,0.549,0.107,0.792,0.107c0.168,0,0.259,0.029,0.259,0.121
		c0,0.122-0.137,0.152-0.351,0.152c-0.991,0-1.601-0.045-1.89-0.045c-0.137,0-0.854,0.045-1.646,0.045
		c-0.198,0-0.335-0.016-0.335-0.152c0-0.092,0.092-0.121,0.244-0.121c0.198,0,0.473-0.016,0.686-0.076
		c0.396-0.123,0.457-0.564,0.472-1.891l0.137-8.979c0-0.305,0.046-0.519,0.198-0.519c0.168,0,0.305,0.198,0.564,0.473
		c0.183,0.198,2.5,2.638,4.726,4.848c1.037,1.036,3.095,3.231,3.354,3.476h0.076l-0.152-6.845c-0.015-0.93-0.152-1.22-0.518-1.372
		c-0.229-0.092-0.595-0.092-0.808-0.092c-0.183,0-0.244-0.045-0.244-0.137c0-0.121,0.167-0.137,0.396-0.137
		c0.793,0,1.524,0.045,1.845,0.045c0.167,0,0.747-0.045,1.494-0.045c0.198,0,0.351,0.016,0.351,0.137
		c0,0.092-0.091,0.137-0.274,0.137c-0.152,0-0.274,0-0.457,0.047c-0.427,0.121-0.549,0.441-0.564,1.295l-0.168,9.619
		c0,0.335-0.061,0.473-0.198,0.473c-0.167,0-0.351-0.168-0.518-0.336c-0.96-0.914-2.912-2.911-4.497-4.481
		c-1.661-1.646-3.354-3.506-3.628-3.796h-0.045L47.056,42.763z"/>
	<path d="M60.644,37.731c0-2.316,0-2.744-0.031-3.231c-0.03-0.519-0.152-0.763-0.655-0.868c-0.122-0.031-0.381-0.047-0.595-0.047
		c-0.167,0-0.259-0.029-0.259-0.137c0-0.106,0.106-0.137,0.335-0.137c0.808,0,1.768,0.045,2.195,0.045
		c0.473,0,1.434-0.045,2.348-0.045c1.905,0,4.451,0,6.112,1.737c0.763,0.793,1.479,2.058,1.479,3.872
		c0,1.92-0.809,3.384-1.662,4.253c-0.701,0.716-2.287,1.799-5.106,1.799c-0.549,0-1.174-0.046-1.753-0.092
		c-0.58-0.046-1.113-0.091-1.494-0.091c-0.167,0-0.503,0-0.869,0.015c-0.351,0-0.747,0.03-1.052,0.03
		c-0.198,0-0.305-0.045-0.305-0.152c0-0.076,0.061-0.121,0.244-0.121c0.229,0,0.411-0.031,0.548-0.062
		c0.305-0.062,0.381-0.396,0.442-0.839c0.076-0.64,0.076-1.844,0.076-3.246V37.731z M62.549,39.409c0,1.615,0.015,2.789,0.031,3.078
		c0.015,0.381,0.045,0.991,0.168,1.159c0.197,0.29,0.792,0.609,1.996,0.609c1.555,0,2.592-0.305,3.506-1.097
		c0.977-0.839,1.281-2.227,1.281-3.797c0-1.936-0.809-3.186-1.464-3.811c-1.402-1.342-3.14-1.523-4.329-1.523
		c-0.305,0-0.869,0.045-0.99,0.105c-0.138,0.062-0.184,0.138-0.184,0.305c-0.015,0.52-0.015,1.846-0.015,3.049V39.409z"/>
	<path d="M74.765,37.731c0-2.316,0-2.744-0.031-3.231c-0.029-0.519-0.182-0.777-0.518-0.854c-0.168-0.046-0.365-0.062-0.549-0.062
		c-0.152,0-0.244-0.029-0.244-0.152c0-0.091,0.122-0.121,0.366-0.121c0.579,0,1.54,0.045,1.981,0.045
		c0.381,0,1.281-0.045,1.859-0.045c0.199,0,0.32,0.03,0.32,0.121c0,0.123-0.092,0.152-0.244,0.152s-0.273,0.016-0.457,0.047
		c-0.411,0.076-0.533,0.335-0.564,0.868c-0.029,0.487-0.029,0.915-0.029,3.231v2.684c0,1.479,0,2.683,0.061,3.338
		c0.046,0.412,0.152,0.686,0.609,0.747c0.214,0.03,0.549,0.062,0.777,0.062c0.168,0,0.244,0.045,0.244,0.121
		c0,0.107-0.121,0.152-0.289,0.152c-1.006,0-1.967-0.045-2.379-0.045c-0.35,0-1.311,0.045-1.92,0.045
		c-0.198,0-0.305-0.045-0.305-0.152c0-0.076,0.061-0.121,0.244-0.121c0.229,0,0.41-0.031,0.548-0.062
		c0.306-0.062,0.396-0.32,0.442-0.763c0.076-0.64,0.076-1.844,0.076-3.322V37.731z"/>
	<path d="M81.734,43.388c-1.493-1.312-1.89-3.019-1.89-4.498c0-1.036,0.32-2.834,1.784-4.176c1.097-1.006,2.545-1.616,4.816-1.616
		c0.945,0,1.509,0.062,2.21,0.152c0.579,0.077,1.067,0.214,1.524,0.259c0.168,0.016,0.229,0.092,0.229,0.184
		c0,0.121-0.045,0.305-0.076,0.838c-0.03,0.504-0.016,1.342-0.045,1.646c-0.016,0.229-0.047,0.351-0.184,0.351
		c-0.122,0-0.152-0.122-0.152-0.335c-0.016-0.473-0.213-1.006-0.594-1.402c-0.504-0.533-1.693-0.945-3.096-0.945
		c-1.326,0-2.194,0.336-2.865,0.945c-1.113,1.021-1.402,2.469-1.402,3.947c0,3.629,2.759,5.428,4.802,5.428
		c1.356,0,2.18-0.152,2.79-0.854c0.259-0.29,0.457-0.732,0.518-1.007C90.149,42.062,90.179,42,90.301,42
		c0.106,0,0.138,0.106,0.138,0.229c0,0.183-0.184,1.509-0.336,2.027c-0.076,0.259-0.137,0.335-0.396,0.442
		c-0.609,0.244-1.768,0.351-2.744,0.351C84.875,45.049,83.122,44.591,81.734,43.388z"/>
	<path d="M94.773,40.948c-0.076,0-0.107,0.03-0.137,0.122l-0.824,2.089c-0.152,0.381-0.229,0.746-0.229,0.93
		c0,0.273,0.138,0.473,0.609,0.473h0.229c0.183,0,0.229,0.029,0.229,0.121c0,0.122-0.091,0.152-0.259,0.152
		c-0.488,0-1.144-0.045-1.616-0.045c-0.167,0-1.006,0.045-1.799,0.045c-0.198,0-0.29-0.03-0.29-0.152
		c0-0.092,0.062-0.121,0.184-0.121c0.137,0,0.351-0.016,0.473-0.031c0.701-0.092,0.99-0.609,1.295-1.371l3.826-9.451
		c0.184-0.442,0.275-0.61,0.428-0.61c0.137,0,0.229,0.138,0.381,0.487c0.365,0.839,2.805,6.937,3.78,9.254
		c0.579,1.371,1.021,1.585,1.341,1.661c0.229,0.046,0.458,0.062,0.641,0.062c0.122,0,0.198,0.015,0.198,0.121
		c0,0.122-0.137,0.152-0.701,0.152c-0.549,0-1.661,0-2.881-0.03c-0.274-0.015-0.458-0.015-0.458-0.122
		c0-0.092,0.062-0.121,0.214-0.137c0.106-0.031,0.214-0.168,0.138-0.352l-1.22-3.14c-0.03-0.076-0.076-0.106-0.153-0.106H94.773z
		 M97.882,40.187c0.076,0,0.092-0.047,0.076-0.092l-1.371-3.75c-0.016-0.061-0.031-0.137-0.076-0.137
		c-0.047,0-0.077,0.076-0.092,0.137l-1.402,3.734c-0.016,0.061,0,0.107,0.061,0.107H97.882z"/>
	<path d="M105.874,34.165l-2.271,0.061c-0.885,0.031-1.25,0.107-1.479,0.442c-0.152,0.229-0.229,0.411-0.26,0.533
		c-0.03,0.122-0.076,0.183-0.168,0.183c-0.106,0-0.137-0.076-0.137-0.243c0-0.244,0.289-1.632,0.32-1.753
		c0.045-0.198,0.092-0.29,0.183-0.29c0.122,0,0.274,0.152,0.655,0.183c0.442,0.047,1.021,0.076,1.524,0.076h6.037
		c0.487,0,0.822-0.045,1.052-0.076c0.229-0.045,0.351-0.076,0.411-0.076c0.106,0,0.122,0.092,0.122,0.32
		c0,0.32-0.046,1.372-0.046,1.769c-0.015,0.152-0.046,0.243-0.137,0.243c-0.122,0-0.152-0.076-0.168-0.305l-0.016-0.168
		c-0.03-0.396-0.441-0.822-1.799-0.854l-1.92-0.045v6.25c0,1.402,0,2.606,0.076,3.262c0.046,0.427,0.137,0.762,0.594,0.823
		c0.214,0.03,0.549,0.062,0.778,0.062c0.167,0,0.243,0.045,0.243,0.121c0,0.107-0.122,0.152-0.289,0.152
		c-1.006,0-1.967-0.045-2.394-0.045c-0.351,0-1.311,0.045-1.921,0.045c-0.198,0-0.305-0.045-0.305-0.152
		c0-0.076,0.062-0.121,0.244-0.121c0.229,0,0.411-0.031,0.549-0.062c0.305-0.062,0.396-0.396,0.441-0.839
		c0.076-0.64,0.076-1.844,0.076-3.246V34.165z"/>
	<path d="M112.815,39.073c0-2.606,1.722-5.976,6.295-5.976c3.796,0,6.158,2.21,6.158,5.701s-2.438,6.25-6.311,6.25
		C114.583,45.049,112.815,41.771,112.815,39.073z M123.134,39.362c0-3.414-1.967-5.533-4.466-5.533c-1.754,0-3.75,0.977-3.75,4.771
		c0,3.171,1.753,5.686,4.68,5.686C120.665,44.286,123.134,43.769,123.134,39.362z"/>
	<path d="M128.46,37.731c0-2.316,0-2.744-0.03-3.231c-0.031-0.519-0.152-0.763-0.655-0.868c-0.122-0.031-0.382-0.047-0.595-0.047
		c-0.168,0-0.26-0.029-0.26-0.137c0-0.106,0.107-0.137,0.336-0.137c0.808,0,1.768,0.045,2.088,0.045
		c0.519,0,1.677-0.045,2.149-0.045c0.961,0,1.981,0.092,2.805,0.655c0.427,0.29,1.037,1.067,1.037,2.089
		c0,1.127-0.473,2.164-2.013,3.414c1.357,1.707,2.409,3.064,3.309,4.009c0.854,0.884,1.479,0.991,1.707,1.036
		c0.168,0.031,0.305,0.047,0.427,0.047s0.183,0.045,0.183,0.121c0,0.122-0.106,0.152-0.289,0.152h-1.448
		c-0.854,0-1.235-0.076-1.631-0.289c-0.656-0.352-1.235-1.067-2.089-2.241c-0.609-0.839-1.311-1.875-1.509-2.104
		c-0.076-0.091-0.168-0.106-0.274-0.106l-1.326-0.031c-0.076,0-0.122,0.031-0.122,0.123v0.213c0,1.418,0,2.622,0.076,3.262
		c0.046,0.442,0.137,0.777,0.595,0.839c0.229,0.03,0.563,0.062,0.747,0.062c0.121,0,0.183,0.045,0.183,0.121
		c0,0.107-0.106,0.152-0.305,0.152c-0.885,0-2.013-0.045-2.241-0.045c-0.29,0-1.25,0.045-1.859,0.045
		c-0.198,0-0.305-0.045-0.305-0.152c0-0.076,0.061-0.121,0.243-0.121c0.229,0,0.412-0.031,0.549-0.062
		c0.305-0.062,0.381-0.396,0.442-0.839c0.076-0.64,0.076-1.844,0.076-3.246V37.731z M130.259,38.937c0,0.167,0.03,0.229,0.137,0.273
		c0.32,0.107,0.777,0.152,1.159,0.152c0.609,0,0.808-0.061,1.082-0.259c0.457-0.335,0.899-1.036,0.899-2.286
		c0-2.164-1.433-2.789-2.332-2.789c-0.382,0-0.656,0.015-0.809,0.061c-0.106,0.03-0.137,0.092-0.137,0.213V38.937z"/>
	<path d="M138.907,44.652c-0.243-0.106-0.289-0.183-0.289-0.519c0-0.838,0.061-1.753,0.076-1.996
		c0.016-0.229,0.061-0.396,0.183-0.396c0.138,0,0.152,0.137,0.152,0.259c0,0.198,0.062,0.519,0.138,0.777
		c0.335,1.128,1.234,1.54,2.18,1.54c1.372,0,2.043-0.93,2.043-1.738c0-0.746-0.229-1.447-1.494-2.439l-0.701-0.549
		c-1.677-1.311-2.256-2.377-2.256-3.611c0-1.678,1.402-2.882,3.521-2.882c0.991,0,1.632,0.152,2.027,0.259
		c0.138,0.031,0.214,0.076,0.214,0.184c0,0.197-0.061,0.641-0.061,1.829c0,0.335-0.046,0.457-0.168,0.457
		c-0.106,0-0.152-0.091-0.152-0.274c0-0.137-0.076-0.609-0.396-1.006c-0.229-0.289-0.671-0.747-1.662-0.747
		c-1.128,0-1.813,0.655-1.813,1.57c0,0.701,0.351,1.235,1.616,2.194l0.427,0.32c1.844,1.388,2.5,2.439,2.5,3.888
		c0,0.884-0.336,1.936-1.434,2.652c-0.762,0.487-1.615,0.625-2.424,0.625C140.249,45.049,139.563,44.942,138.907,44.652z"/>
</g>
</svg>
